G04 Layer: TopSilkscreenLayer*
G04 EasyEDA v6.5.51, 2026-08-23 07:33:02*
G04 593b3b684d2d4ec085ee971abedc3450,ec37ab971b5f4b32b87b66fb5d5cdcb1,10*
G04 Gerber Generator version 0.2*
G04 Scale: 100 percent, Rotated: No, Reflected: No *
G04 Dimensions in millimeters *
G04 leading zeros omitted , absolute positions ,4 integer and 5 decimal *
%FSLAX45Y45*%
%MOMM*%

%ADD10C,0.1524*%
%ADD11C,0.2540*%
%ADD12C,0.0171*%

%LPD*%
G36*
X8500008Y3099968D02*
G01*
X8500008Y3010306D01*
X8586165Y3010306D01*
X8587486Y3013811D01*
X9016390Y3013100D01*
X9016390Y2583434D01*
X8586876Y2583434D01*
X8586165Y3010306D01*
X8500008Y3010306D01*
X8500008Y2496566D01*
X9103258Y2496566D01*
X9103258Y3099968D01*
G37*
G36*
X9361881Y3099968D02*
G01*
X9361170Y3014472D01*
X9189466Y3013760D01*
X9189466Y2927604D01*
X9274962Y2926892D01*
X9274962Y2755849D01*
X9189466Y2755138D01*
X9189466Y2668981D01*
X9274962Y2668270D01*
X9274962Y2583434D01*
X9189466Y2582722D01*
X9189466Y2496566D01*
X9275622Y2496566D01*
X9276334Y2582062D01*
X9361170Y2582062D01*
X9361881Y2496566D01*
X9448038Y2496566D01*
X9448038Y2582722D01*
X9362541Y2583434D01*
X9362541Y3013100D01*
X9447326Y3013100D01*
X9447350Y3010255D01*
X9620351Y3010255D01*
X9621723Y3013811D01*
X9878263Y3013100D01*
X9878263Y2755849D01*
X9793478Y2755849D01*
X9792716Y2841345D01*
X9707270Y2842056D01*
X9706559Y2927553D01*
X9621113Y2928264D01*
X9620351Y3010255D01*
X9447350Y3010255D01*
X9448038Y2927604D01*
X9533534Y2926892D01*
X9533534Y2842056D01*
X9448038Y2841345D01*
X9448038Y2837840D01*
X9534144Y2837840D01*
X9535515Y2841396D01*
X9705898Y2840685D01*
X9706610Y2755188D01*
X9792055Y2754477D01*
X9792055Y2669641D01*
X9621113Y2669641D01*
X9620351Y2755138D01*
X9534906Y2755849D01*
X9534144Y2837840D01*
X9448038Y2837840D01*
X9448038Y2755188D01*
X9533534Y2754477D01*
X9534245Y2668981D01*
X9619691Y2668270D01*
X9619691Y2583434D01*
X9534245Y2582722D01*
X9534236Y2579268D01*
X9620351Y2579268D01*
X9621723Y2582773D01*
X9705898Y2582062D01*
X9705898Y2497226D01*
X9793478Y2497226D01*
X9793478Y2668270D01*
X9878923Y2668981D01*
X9878923Y2753309D01*
X9880803Y2755188D01*
X10050627Y2754477D01*
X10050627Y2669641D01*
X9965182Y2668930D01*
X9964420Y2583434D01*
X9878974Y2582722D01*
X9878945Y2579268D01*
X9965131Y2579268D01*
X9966452Y2582773D01*
X10050627Y2582062D01*
X10051338Y2496566D01*
X10136784Y2495854D01*
X10137546Y2410358D01*
X10222992Y2409647D01*
X10223754Y2324150D01*
X10309199Y2323439D01*
X10309910Y2237943D01*
X10395356Y2237232D01*
X10395356Y2152396D01*
X10309910Y2151684D01*
X10309199Y2066188D01*
X10223754Y2065477D01*
X10223721Y2062022D01*
X10309809Y2062022D01*
X10311180Y2065528D01*
X10395356Y2064816D01*
X10395356Y1979980D01*
X10310571Y1979980D01*
X10309809Y2062022D01*
X10223721Y2062022D01*
X10222992Y1979980D01*
X10051999Y1979980D01*
X10051999Y2064816D01*
X10137444Y2065528D01*
X10138206Y2151024D01*
X10223703Y2151735D01*
X10223703Y2237892D01*
X10138206Y2238603D01*
X10137444Y2324100D01*
X10051999Y2324811D01*
X10051288Y2410307D01*
X9965842Y2411018D01*
X9965131Y2579268D01*
X9878945Y2579268D01*
X9878263Y2497226D01*
X9621113Y2497226D01*
X9620351Y2579268D01*
X9534236Y2579268D01*
X9533534Y2324811D01*
X9448698Y2324811D01*
X9447987Y2410358D01*
X9189466Y2410358D01*
X9188754Y2152396D01*
X9103969Y2152396D01*
X9103258Y2237943D01*
X8844737Y2237943D01*
X8844365Y2148230D01*
X9017050Y2148230D01*
X9018422Y2151735D01*
X9102598Y2151024D01*
X9102598Y2066188D01*
X9017812Y2066188D01*
X9017050Y2148230D01*
X8844365Y2148230D01*
X8844026Y2066188D01*
X8759240Y2066188D01*
X8758478Y2151684D01*
X8586876Y2152396D01*
X8586165Y2324150D01*
X8500008Y2324150D01*
X8500008Y2151735D01*
X8585504Y2151024D01*
X8585504Y2066188D01*
X8500008Y2065477D01*
X8500008Y2062022D01*
X8844686Y2062022D01*
X8846058Y2065528D01*
X8930233Y2064816D01*
X8930233Y1979980D01*
X8845397Y1979980D01*
X8844686Y2062022D01*
X8500008Y2062022D01*
X8500008Y1975815D01*
X8758478Y1975815D01*
X8759850Y1979320D01*
X8844026Y1978609D01*
X8844026Y1893773D01*
X8759240Y1893773D01*
X8758478Y1975815D01*
X8500008Y1975815D01*
X8500008Y1893112D01*
X8671661Y1892401D01*
X8671661Y1807565D01*
X8500008Y1806854D01*
X8500008Y1720697D01*
X8585504Y1719986D01*
X8585504Y1548942D01*
X8500008Y1548231D01*
X8500008Y1544777D01*
X8586165Y1544777D01*
X8587486Y1548282D01*
X8757869Y1547571D01*
X8757869Y1462735D01*
X8672423Y1462024D01*
X8671661Y1376527D01*
X8586876Y1376527D01*
X8586165Y1544777D01*
X8500008Y1544777D01*
X8500008Y1375918D01*
X8585504Y1375156D01*
X8586216Y1289659D01*
X8758478Y1289659D01*
X8759240Y1375156D01*
X8844737Y1375918D01*
X8844737Y1548231D01*
X8759240Y1548942D01*
X8759240Y1633778D01*
X8844737Y1634540D01*
X8844737Y1720697D01*
X8758580Y1720697D01*
X8757869Y1635150D01*
X8673033Y1635150D01*
X8673033Y1806193D01*
X9188754Y1806193D01*
X9189516Y1720697D01*
X9275673Y1720697D01*
X9275673Y1979320D01*
X9189516Y1979320D01*
X9188754Y1893773D01*
X8931605Y1893773D01*
X8931605Y1978609D01*
X9103258Y1979320D01*
X9103969Y2064816D01*
X9361830Y2065528D01*
X9361830Y2151684D01*
X9276334Y2152396D01*
X9276334Y2237232D01*
X9361779Y2237943D01*
X9362541Y2323439D01*
X9447326Y2323439D01*
X9448035Y2152396D01*
X9534906Y2152396D01*
X9534906Y2323439D01*
X9619691Y2323439D01*
X9620453Y2237943D01*
X9706559Y2237943D01*
X9706559Y2408478D01*
X9708438Y2410358D01*
X9878263Y2409647D01*
X9878263Y2320645D01*
X9965131Y2320645D01*
X9966452Y2324150D01*
X10050627Y2323439D01*
X10051338Y2237943D01*
X10136784Y2237232D01*
X10136784Y2152396D01*
X10051338Y2151684D01*
X10050627Y2066188D01*
X9965842Y2066188D01*
X9965131Y2320645D01*
X9878263Y2320645D01*
X9878263Y2152396D01*
X9448035Y2152396D01*
X9448038Y2151735D01*
X9533534Y2151024D01*
X9533534Y2066188D01*
X9448038Y2065477D01*
X9448009Y2062022D01*
X9534144Y2062022D01*
X9535515Y2065528D01*
X9792055Y2064816D01*
X9792055Y1979980D01*
X9534906Y1979980D01*
X9534144Y2062022D01*
X9448009Y2062022D01*
X9447326Y1979980D01*
X9361830Y1979269D01*
X9361830Y1975815D01*
X9792716Y1975815D01*
X9794087Y1979320D01*
X9878263Y1978609D01*
X9878263Y1893773D01*
X9793478Y1893773D01*
X9792716Y1975815D01*
X9361830Y1975815D01*
X9361830Y1720697D01*
X9447987Y1720697D01*
X9448698Y1892401D01*
X9792055Y1892401D01*
X9792817Y1806905D01*
X9965131Y1806905D01*
X9965842Y1978609D01*
X10050627Y1978609D01*
X10051338Y1720697D01*
X10136784Y1719986D01*
X10136784Y1548942D01*
X10051999Y1548942D01*
X10051288Y1634439D01*
X9965842Y1635150D01*
X9965080Y1720697D01*
X9878923Y1720697D01*
X9878923Y1634540D01*
X9964420Y1633778D01*
X9964420Y1544777D01*
X10137444Y1544777D01*
X10138816Y1548282D01*
X10309199Y1547571D01*
X10309222Y1544777D01*
X10396016Y1544777D01*
X10397388Y1548333D01*
X10481564Y1547571D01*
X10481564Y1462735D01*
X10396728Y1462735D01*
X10396016Y1544777D01*
X10309222Y1544777D01*
X10309910Y1462125D01*
X10395356Y1461363D01*
X10395356Y1376527D01*
X10224363Y1376527D01*
X10223652Y1462024D01*
X10138206Y1462735D01*
X10137444Y1544777D01*
X9964420Y1544777D01*
X9964420Y1462735D01*
X9878923Y1462024D01*
X9878923Y1375867D01*
X9965080Y1375867D01*
X9965842Y1461363D01*
X10136784Y1461363D01*
X10136784Y1376527D01*
X10051338Y1375816D01*
X10051338Y1289659D01*
X10222992Y1288948D01*
X10222992Y1286154D01*
X10309860Y1286154D01*
X10311180Y1289659D01*
X10567720Y1288948D01*
X10567720Y1031748D01*
X10310571Y1031748D01*
X10309860Y1286154D01*
X10222992Y1286154D01*
X10222992Y1117904D01*
X9965131Y1117244D01*
X9965131Y1027531D01*
X10137444Y1027531D01*
X10138816Y1031087D01*
X10222992Y1030325D01*
X10222992Y945540D01*
X10138206Y945540D01*
X10137444Y1027531D01*
X9965131Y1027531D01*
X9965131Y858621D01*
X10222992Y857910D01*
X10222992Y773125D01*
X10137546Y772363D01*
X10137517Y768908D01*
X10223652Y768908D01*
X10225024Y772464D01*
X10309199Y771702D01*
X10309199Y686917D01*
X10224363Y686917D01*
X10223652Y768908D01*
X10137517Y768908D01*
X10136784Y686917D01*
X9879634Y686917D01*
X9878923Y772414D01*
X9792817Y772414D01*
X9792055Y686917D01*
X9706559Y686155D01*
X9706559Y599998D01*
X10137444Y599998D01*
X10138206Y685495D01*
X10222992Y685495D01*
X10223754Y599998D01*
X10482224Y599998D01*
X10482224Y686155D01*
X10396728Y686917D01*
X10396016Y858570D01*
X10224363Y859332D01*
X10224363Y944118D01*
X10481564Y944118D01*
X10482275Y858621D01*
X10568381Y858621D01*
X10569143Y944118D01*
X10653928Y944118D01*
X10653928Y773125D01*
X10568432Y772363D01*
X10568432Y599998D01*
X10654588Y599998D01*
X10655300Y685495D01*
X10740085Y685495D01*
X10740847Y599998D01*
X10913110Y599998D01*
X10913872Y685495D01*
X10999368Y686257D01*
X10999368Y772414D01*
X10827664Y773125D01*
X10826953Y944778D01*
X10655300Y945540D01*
X10655300Y1030325D01*
X10740796Y1031087D01*
X10740796Y1117193D01*
X10655300Y1117904D01*
X10655300Y1547571D01*
X10826292Y1547571D01*
X10826292Y1462735D01*
X10740796Y1462024D01*
X10740796Y1203452D01*
X10826953Y1203452D01*
X10827664Y1375156D01*
X10912500Y1375156D01*
X10913211Y1203452D01*
X10999368Y1203452D01*
X10999368Y1375816D01*
X10913872Y1376527D01*
X10913872Y1547571D01*
X10999368Y1548333D01*
X10999368Y1634439D01*
X10827664Y1635150D01*
X10826953Y1720646D01*
X10655300Y1721357D01*
X10654588Y1806905D01*
X10568432Y1806905D01*
X10568432Y1720697D01*
X10653928Y1719986D01*
X10653928Y1548942D01*
X10569143Y1548942D01*
X10568381Y1634489D01*
X10396118Y1634489D01*
X10395356Y1548942D01*
X10310571Y1548942D01*
X10309809Y1634439D01*
X10224363Y1635150D01*
X10224363Y1892401D01*
X10395356Y1892401D01*
X10395356Y1807565D01*
X10309860Y1806854D01*
X10309860Y1720697D01*
X10482224Y1720697D01*
X10482224Y1893062D01*
X10396728Y1893773D01*
X10396728Y1978609D01*
X10482224Y1979320D01*
X10482224Y2237892D01*
X10396728Y2238603D01*
X10396016Y2410307D01*
X10310571Y2411018D01*
X10309860Y2582773D01*
X10223754Y2582773D01*
X10222992Y2497226D01*
X10138206Y2497226D01*
X10138206Y2668270D01*
X10309860Y2668981D01*
X10309860Y2755138D01*
X10224363Y2755849D01*
X10224363Y2840685D01*
X10309860Y2841396D01*
X10309860Y3099968D01*
X10223703Y3099968D01*
X10222992Y2928264D01*
X10137546Y2927553D01*
X10136784Y2842056D01*
X9965842Y2842056D01*
X9965842Y3013100D01*
X10051338Y3013811D01*
X10051338Y3099968D01*
X9620453Y3099968D01*
X9619691Y3014472D01*
X9534906Y3014472D01*
X9534144Y3099968D01*
G37*
G36*
X10396067Y3099968D02*
G01*
X10396067Y3010306D01*
X10482224Y3010306D01*
X10483545Y3013811D01*
X10912500Y3013100D01*
X10912500Y2583434D01*
X10482935Y2583434D01*
X10482224Y3010306D01*
X10396067Y3010306D01*
X10396067Y2496566D01*
X10999368Y2496566D01*
X10999368Y3099968D01*
G37*
G36*
X8672372Y2927553D02*
G01*
X8672372Y2668981D01*
X8930894Y2668981D01*
X8930894Y2927553D01*
G37*
G36*
X10568432Y2927553D02*
G01*
X10568432Y2668981D01*
X10827004Y2668981D01*
X10827004Y2927553D01*
G37*
G36*
X8672372Y2410358D02*
G01*
X8672372Y2324150D01*
X8758529Y2324150D01*
X8758529Y2410358D01*
G37*
G36*
X8844737Y2410358D02*
G01*
X8844737Y2324150D01*
X9103258Y2324150D01*
X9103258Y2410358D01*
G37*
G36*
X10568432Y2410358D02*
G01*
X10568432Y2324150D01*
X10654588Y2324150D01*
X10654588Y2410358D01*
G37*
G36*
X10827004Y2410358D02*
G01*
X10827004Y2237943D01*
X10999368Y2237943D01*
X10999368Y2324100D01*
X10913872Y2324811D01*
X10913110Y2410358D01*
G37*
G36*
X10568432Y2237943D02*
G01*
X10568432Y1893112D01*
X10654588Y1893112D01*
X10655300Y2064816D01*
X10826292Y2064816D01*
X10826292Y1979980D01*
X10740796Y1979269D01*
X10740796Y1806905D01*
X10912500Y1806193D01*
X10913211Y1720697D01*
X10999368Y1720697D01*
X10999368Y1893062D01*
X10827664Y1893773D01*
X10827664Y1978609D01*
X10913160Y1979320D01*
X10913160Y2151684D01*
X10741507Y2152396D01*
X10740745Y2237943D01*
G37*
G36*
X9534245Y1806905D02*
G01*
X9533874Y1717192D01*
X9620351Y1717192D01*
X9621723Y1720697D01*
X9705898Y1719986D01*
X9705898Y1635150D01*
X9621113Y1635150D01*
X9620351Y1717192D01*
X9533874Y1717192D01*
X9533534Y1635150D01*
X9275673Y1634439D01*
X9274962Y1548942D01*
X9190177Y1548942D01*
X9189415Y1634439D01*
X9103969Y1635150D01*
X9103258Y1720697D01*
X9017101Y1720697D01*
X9017101Y1634540D01*
X9102598Y1633778D01*
X9102598Y1548942D01*
X8930894Y1548231D01*
X8930894Y1458569D01*
X9017050Y1458569D01*
X9018422Y1462125D01*
X9102598Y1461363D01*
X9102598Y1376527D01*
X9017812Y1376527D01*
X9017050Y1458569D01*
X8930894Y1458569D01*
X8930894Y1289659D01*
X9103258Y1289659D01*
X9103969Y1375156D01*
X9188754Y1375156D01*
X9189123Y1286154D01*
X9275622Y1286154D01*
X9276994Y1289710D01*
X9361170Y1288948D01*
X9361170Y1204163D01*
X9276334Y1204163D01*
X9275622Y1286154D01*
X9189123Y1286154D01*
X9189466Y1203502D01*
X9274962Y1202740D01*
X9274962Y1117904D01*
X9189466Y1117193D01*
X9189466Y1113739D01*
X9620351Y1113739D01*
X9621723Y1117244D01*
X9792055Y1116533D01*
X9792055Y1031748D01*
X9621113Y1031748D01*
X9620351Y1113739D01*
X9189466Y1113739D01*
X9189466Y1027531D01*
X9361779Y1027531D01*
X9363151Y1031087D01*
X9447326Y1030325D01*
X9447326Y945540D01*
X9362541Y945540D01*
X9361779Y1027531D01*
X9189466Y1027531D01*
X9189466Y944880D01*
X9274962Y944118D01*
X9274962Y859332D01*
X9189466Y858570D01*
X9189466Y772464D01*
X9274962Y771702D01*
X9275673Y599998D01*
X9620402Y599998D01*
X9620402Y686155D01*
X9534906Y686917D01*
X9534144Y772414D01*
X9448038Y772414D01*
X9447326Y686917D01*
X9362541Y686917D01*
X9361779Y772363D01*
X9276334Y773125D01*
X9276334Y857910D01*
X9534194Y858621D01*
X9534906Y1030325D01*
X9619691Y1030325D01*
X9620453Y944829D01*
X9792055Y944118D01*
X9792817Y858621D01*
X9878923Y858621D01*
X9878923Y944778D01*
X9793478Y945540D01*
X9793478Y1030325D01*
X9878923Y1031087D01*
X9879634Y1202740D01*
X9965131Y1203502D01*
X9965131Y1289659D01*
X9878974Y1289659D01*
X9878263Y1204163D01*
X9793478Y1204163D01*
X9792766Y1375867D01*
X9706610Y1375867D01*
X9705898Y1204163D01*
X9620453Y1203401D01*
X9619691Y1117904D01*
X9362541Y1117904D01*
X9362541Y1202740D01*
X9534194Y1203452D01*
X9534194Y1289608D01*
X9362541Y1290320D01*
X9361830Y1462024D01*
X9276334Y1462735D01*
X9276334Y1547571D01*
X9447326Y1547571D01*
X9448038Y1375867D01*
X9620351Y1375867D01*
X9621113Y1461363D01*
X9792766Y1462074D01*
X9792766Y1548231D01*
X9707270Y1548942D01*
X9707270Y1633778D01*
X9792766Y1634540D01*
X9792766Y1720646D01*
X9707270Y1721357D01*
X9706559Y1806905D01*
G37*
G36*
X8500008Y1203452D02*
G01*
X8500008Y1113739D01*
X8586165Y1113739D01*
X8587486Y1117244D01*
X9016390Y1116533D01*
X9016390Y686917D01*
X8586876Y686917D01*
X8586165Y1113739D01*
X8500008Y1113739D01*
X8500008Y599998D01*
X9103258Y599998D01*
X9103258Y1203452D01*
G37*
G36*
X10396067Y1203452D02*
G01*
X10396067Y1117244D01*
X10482224Y1117244D01*
X10482224Y1203452D01*
G37*
G36*
X10827004Y1117244D02*
G01*
X10827004Y1031087D01*
X10912500Y1030325D01*
X10913211Y944829D01*
X10999368Y944829D01*
X10999368Y1030986D01*
X10913872Y1031748D01*
X10913110Y1117244D01*
G37*
G36*
X8672372Y1031036D02*
G01*
X8672372Y772414D01*
X8930894Y772414D01*
X8930894Y1031036D01*
G37*
G36*
X9620402Y858621D02*
G01*
X9620402Y772414D01*
X9706559Y772414D01*
X9706559Y858621D01*
G37*
G36*
X5049367Y5273954D02*
G01*
X5034076Y5273344D01*
X4740402Y5273294D01*
X4738573Y5272684D01*
X4734560Y5272938D01*
X4732528Y5272278D01*
X4727498Y5270144D01*
X4723333Y5267756D01*
X4719980Y5265166D01*
X4717542Y5262372D01*
X4715357Y5258511D01*
X4713884Y5254040D01*
X4713071Y5249011D01*
X4712970Y5243322D01*
X4713478Y5220208D01*
X4713478Y4979924D01*
X4805934Y4979924D01*
X4806442Y5011420D01*
X4806442Y5126228D01*
X4805934Y5155184D01*
X4806543Y5169458D01*
X4809490Y5180330D01*
X4812030Y5184851D01*
X4815535Y5188508D01*
X4820005Y5191353D01*
X4826965Y5193741D01*
X4829759Y5194249D01*
X4832299Y5194350D01*
X4834483Y5194858D01*
X4835398Y5195316D01*
X5014366Y5195265D01*
X5041696Y5194757D01*
X5055108Y5194300D01*
X5067909Y5193385D01*
X5079949Y5191556D01*
X5091176Y5188915D01*
X5101590Y5185410D01*
X5112867Y5180177D01*
X5123129Y5173929D01*
X5132476Y5166766D01*
X5140858Y5158587D01*
X5148224Y5149494D01*
X5154625Y5139385D01*
X5160111Y5128361D01*
X5164582Y5116322D01*
X5167934Y5104028D01*
X5170424Y5088890D01*
X5171186Y5072989D01*
X5169408Y5058410D01*
X5169408Y5049266D01*
X5166410Y5035804D01*
X5163058Y5023358D01*
X5158638Y5011623D01*
X5152390Y5000244D01*
X5144262Y4989017D01*
X5134914Y4979314D01*
X5124348Y4970983D01*
X5112512Y4964176D01*
X5099659Y4958689D01*
X5085943Y4954168D01*
X5071465Y4950561D01*
X5056124Y4947920D01*
X5045405Y4946548D01*
X5034381Y4945430D01*
X5023104Y4944618D01*
X5011521Y4944059D01*
X4999685Y4943805D01*
X4950002Y4944211D01*
X4843678Y4944465D01*
X4837988Y4944719D01*
X4827524Y4945888D01*
X4822850Y4947005D01*
X4818837Y4948732D01*
X4815382Y4951171D01*
X4812538Y4954270D01*
X4807356Y4965242D01*
X4805934Y4979924D01*
X4713478Y4979924D01*
X4713478Y4585716D01*
X4713986Y4579518D01*
X4715510Y4574336D01*
X4718050Y4570222D01*
X4721606Y4567174D01*
X4725263Y4565040D01*
X4729327Y4563414D01*
X4733899Y4562348D01*
X4738878Y4561840D01*
X4760468Y4561332D01*
X4775200Y4560671D01*
X4779518Y4561332D01*
X4784140Y4562856D01*
X4789728Y4563465D01*
X4793538Y4564481D01*
X4798314Y4566615D01*
X4800549Y4568494D01*
X4802225Y4571085D01*
X4803394Y4574286D01*
X4806950Y4586884D01*
X4807458Y4604766D01*
X4806696Y4623663D01*
X4806442Y4639310D01*
X4806391Y4793183D01*
X4805934Y4823714D01*
X4807305Y4843170D01*
X4812538Y4856226D01*
X4814671Y4858562D01*
X4816906Y4860442D01*
X4819345Y4861864D01*
X4834382Y4866386D01*
X5035194Y4866284D01*
X5051044Y4865878D01*
X5065877Y4864252D01*
X5079492Y4860290D01*
X5090109Y4856378D01*
X5099913Y4851552D01*
X5108956Y4845862D01*
X5117236Y4839360D01*
X5124704Y4831892D01*
X5131409Y4823612D01*
X5137353Y4814468D01*
X5142484Y4804410D01*
X5148376Y4787900D01*
X5151882Y4770374D01*
X5155031Y4752340D01*
X5160365Y4730343D01*
X5161026Y4726482D01*
X5162042Y4712258D01*
X5163566Y4705350D01*
X5166614Y4660392D01*
X5166664Y4645253D01*
X5167020Y4639310D01*
X5167884Y4632248D01*
X5167172Y4626305D01*
X5167223Y4624070D01*
X5168392Y4619244D01*
X5168442Y4611065D01*
X5168950Y4607255D01*
X5173980Y4583684D01*
X5175605Y4578807D01*
X5177840Y4574590D01*
X5180787Y4571085D01*
X5184394Y4568190D01*
X5195265Y4563059D01*
X5209540Y4561332D01*
X5245455Y4561382D01*
X5253228Y4561636D01*
X5260594Y4562246D01*
X5263845Y4562957D01*
X5266791Y4564024D01*
X5269484Y4565396D01*
X5273090Y4569206D01*
X5274970Y4573778D01*
X5275122Y4579112D01*
X5273548Y4585208D01*
X5264404Y4609338D01*
X5262829Y4615129D01*
X5261254Y4626406D01*
X5258155Y4636871D01*
X5256123Y4646625D01*
X5254955Y4657039D01*
X5253431Y4667351D01*
X5252059Y4674768D01*
X5251805Y4678934D01*
X5252110Y4682540D01*
X5251856Y4686350D01*
X5250637Y4692294D01*
X5250180Y4696256D01*
X5250129Y4700270D01*
X5250738Y4708245D01*
X5250688Y4712004D01*
X5250230Y4715713D01*
X5249418Y4719320D01*
X5249418Y4728210D01*
X5248605Y4731766D01*
X5248148Y4735271D01*
X5248097Y4738725D01*
X5248706Y4745736D01*
X5248656Y4749292D01*
X5248198Y4752848D01*
X5247386Y4756404D01*
X5243576Y4787392D01*
X5238496Y4806645D01*
X5233416Y4824730D01*
X5227015Y4841341D01*
X5217414Y4856226D01*
X5209844Y4866589D01*
X5200904Y4875276D01*
X5191150Y4883099D01*
X5180584Y4890262D01*
X5176113Y4892802D01*
X5170932Y4896358D01*
X5168646Y4898491D01*
X5167172Y4900879D01*
X5166512Y4903470D01*
X5166614Y4906264D01*
X5167223Y4909159D01*
X5168188Y4911750D01*
X5169611Y4913985D01*
X5171440Y4915916D01*
X5175758Y4919167D01*
X5188254Y4927396D01*
X5195570Y4932680D01*
X5210556Y4944364D01*
X5219446Y4954270D01*
X5223510Y4957318D01*
X5226659Y4962093D01*
X5230114Y4966208D01*
X5233365Y4970526D01*
X5236464Y4975352D01*
X5243626Y4987645D01*
X5248910Y5000752D01*
X5258562Y5029200D01*
X5260187Y5036312D01*
X5261914Y5050586D01*
X5263388Y5058410D01*
X5263388Y5069332D01*
X5264302Y5074716D01*
X5264912Y5080762D01*
X5265013Y5086908D01*
X5264404Y5092192D01*
X5264404Y5102352D01*
X5263489Y5106314D01*
X5262372Y5114594D01*
X5261762Y5123027D01*
X5261254Y5127193D01*
X5259578Y5135372D01*
X5254142Y5151323D01*
X5248097Y5166207D01*
X5241340Y5180025D01*
X5233924Y5192776D01*
X5225592Y5204612D01*
X5216093Y5215432D01*
X5205374Y5225288D01*
X5193538Y5234178D01*
X5179060Y5243525D01*
X5163566Y5251196D01*
X5146802Y5258054D01*
X5128514Y5264404D01*
X5120335Y5265978D01*
X5107838Y5267756D01*
X5099558Y5269280D01*
X5095494Y5270246D01*
X5076494Y5272379D01*
X5070602Y5273294D01*
X5059426Y5273294D01*
X5053025Y5273954D01*
G37*
G36*
X8200440Y5273040D02*
G01*
X8188452Y5272786D01*
X8177174Y5271922D01*
X8167116Y5270246D01*
X8162493Y5269128D01*
X8158327Y5267756D01*
X8154619Y5266182D01*
X8151368Y5264404D01*
X8148167Y5261457D01*
X8145322Y5257596D01*
X8142935Y5252923D01*
X8137347Y5236260D01*
X8133588Y5227320D01*
X8125663Y5207000D01*
X8110423Y5165547D01*
X8102600Y5145278D01*
X8093100Y5122062D01*
X8083854Y5098745D01*
X8074914Y5075326D01*
X8066278Y5051806D01*
X8049615Y5004663D01*
X8041030Y4981194D01*
X8032140Y4957826D01*
X8022945Y4934559D01*
X8013446Y4911344D01*
X8005876Y4891430D01*
X7992160Y4852466D01*
X7984490Y4833366D01*
X7976616Y4811268D01*
X7944612Y4726178D01*
X7939024Y4713224D01*
X7937601Y4710328D01*
X7935874Y4707585D01*
X7933791Y4704892D01*
X7927594Y4698746D01*
X7926425Y4698136D01*
X7925053Y4697831D01*
X7923377Y4697882D01*
X7921498Y4698238D01*
X7917332Y4699914D01*
X7913827Y4702860D01*
X7910880Y4707128D01*
X7908544Y4712716D01*
X7904480Y4724450D01*
X7900416Y4734306D01*
X7891729Y4756454D01*
X7875219Y4801158D01*
X7866380Y4823206D01*
X7861452Y4838242D01*
X7841996Y4888331D01*
X7833614Y4910988D01*
X7817358Y4956505D01*
X7808975Y4979212D01*
X7800340Y5001869D01*
X7785811Y5038598D01*
X7775244Y5068062D01*
X7769606Y5082286D01*
X7761986Y5100472D01*
X7758531Y5109616D01*
X7752384Y5128107D01*
X7745882Y5146243D01*
X7738567Y5164734D01*
X7731353Y5183784D01*
X7724648Y5202834D01*
X7717434Y5221884D01*
X7711033Y5236768D01*
X7706868Y5247182D01*
X7705090Y5252212D01*
X7702956Y5257038D01*
X7700162Y5261305D01*
X7696606Y5265013D01*
X7692390Y5268214D01*
X7689240Y5269992D01*
X7685735Y5271262D01*
X7681772Y5272024D01*
X7677403Y5272278D01*
X7597394Y5272278D01*
X7595412Y5271668D01*
X7590688Y5271922D01*
X7588503Y5271262D01*
X7583474Y5269128D01*
X7579309Y5266740D01*
X7575956Y5264150D01*
X7573518Y5261356D01*
X7571333Y5257495D01*
X7569809Y5253024D01*
X7569047Y5247995D01*
X7568946Y5242306D01*
X7569352Y5230571D01*
X7569453Y4609338D01*
X7569809Y4593336D01*
X7570978Y4579366D01*
X7575346Y4568647D01*
X7585456Y4562348D01*
X7590586Y4560824D01*
X7595870Y4560316D01*
X7622184Y4560468D01*
X7634986Y4560824D01*
X7640726Y4561535D01*
X7645603Y4563160D01*
X7649514Y4565751D01*
X7652512Y4569206D01*
X7654747Y4572558D01*
X7656423Y4576521D01*
X7657541Y4581042D01*
X7658100Y4586224D01*
X7658506Y4597349D01*
X7658608Y5045202D01*
X7658353Y5052263D01*
X7657287Y5062677D01*
X7657338Y5066030D01*
X7657795Y5069281D01*
X7658608Y5072380D01*
X7658608Y5083302D01*
X7659928Y5089347D01*
X7660487Y5098237D01*
X7660894Y5101082D01*
X7662418Y5106416D01*
X7664958Y5107990D01*
X7666481Y5109210D01*
X7671562Y5109210D01*
X7674559Y5106873D01*
X7675372Y5105400D01*
X7678724Y5101183D01*
X7681620Y5096713D01*
X7684058Y5091938D01*
X7692085Y5070703D01*
X7698435Y5055158D01*
X7706207Y5034432D01*
X7725409Y4981194D01*
X7734553Y4958791D01*
X7752029Y4913782D01*
X7760462Y4891125D01*
X7784947Y4822901D01*
X7793532Y4800295D01*
X7811516Y4755388D01*
X7815325Y4746345D01*
X7818831Y4737252D01*
X7822031Y4728057D01*
X7827924Y4709566D01*
X7831124Y4700422D01*
X7834630Y4691278D01*
X7842453Y4672228D01*
X7850225Y4651502D01*
X7857744Y4630115D01*
X7869428Y4599178D01*
X7874152Y4589373D01*
X7880096Y4575352D01*
X7882686Y4571441D01*
X7885836Y4568088D01*
X7892796Y4563160D01*
X7896555Y4561586D01*
X7900771Y4560620D01*
X7905496Y4560316D01*
X7927492Y4560265D01*
X7935417Y4559655D01*
X7938973Y4559909D01*
X7942021Y4560722D01*
X7944713Y4560976D01*
X7948320Y4560671D01*
X7950453Y4561332D01*
X7956397Y4563719D01*
X7961325Y4566716D01*
X7965186Y4570425D01*
X7967980Y4574794D01*
X7977378Y4595368D01*
X7984236Y4613351D01*
X7993634Y4640173D01*
X7996986Y4649216D01*
X8004556Y4667250D01*
X8013903Y4690313D01*
X8022844Y4713579D01*
X8031429Y4737049D01*
X8047837Y4784445D01*
X8056575Y4808118D01*
X8065770Y4831689D01*
X8075422Y4855210D01*
X8081264Y4870297D01*
X8091982Y4901133D01*
X8102346Y4925364D01*
X8105851Y4934407D01*
X8109051Y4943500D01*
X8114944Y4961991D01*
X8118144Y4971135D01*
X8121650Y4980279D01*
X8126425Y4991760D01*
X8130590Y5004866D01*
X8138972Y5024475D01*
X8145525Y5041900D01*
X8151672Y5059121D01*
X8166100Y5095240D01*
X8168436Y5100218D01*
X8171129Y5104079D01*
X8174126Y5106720D01*
X8177530Y5108194D01*
X8177530Y5109210D01*
X8181949Y5108448D01*
X8185200Y5106212D01*
X8187385Y5102504D01*
X8188452Y5097272D01*
X8189214Y5085791D01*
X8190230Y5050942D01*
X8190484Y5025898D01*
X8190433Y4620717D01*
X8189823Y4601768D01*
X8190484Y4595368D01*
X8190484Y4584192D01*
X8192109Y4579670D01*
X8193938Y4572355D01*
X8195564Y4569206D01*
X8198358Y4565751D01*
X8201964Y4563160D01*
X8206384Y4561535D01*
X8211566Y4560824D01*
X8222996Y4560417D01*
X8251444Y4560316D01*
X8265414Y4563872D01*
X8268258Y4564888D01*
X8270748Y4566462D01*
X8272830Y4568596D01*
X8276640Y4574590D01*
X8278063Y4578553D01*
X8278774Y4583074D01*
X8278875Y4588256D01*
X8278368Y4610354D01*
X8278368Y5222240D01*
X8278164Y5236718D01*
X8277606Y5250180D01*
X8276590Y5256276D01*
X8274558Y5261305D01*
X8271509Y5265267D01*
X8264652Y5269992D01*
X8261299Y5271262D01*
X8257387Y5272024D01*
X8252968Y5272278D01*
X8229346Y5272328D01*
G37*
G36*
X6479286Y5088991D02*
G01*
X6475476Y5088737D01*
X6472174Y5088229D01*
X6469380Y5087366D01*
X6457696Y5087315D01*
X6452971Y5086807D01*
X6427317Y5081930D01*
X6422847Y5080914D01*
X6414516Y5078222D01*
X6397244Y5071668D01*
X6381496Y5063744D01*
X6366764Y5054650D01*
X6352540Y5044186D01*
X6348526Y5041493D01*
X6344615Y5038140D01*
X6340754Y5034229D01*
X6337046Y5029708D01*
X6333083Y5025390D01*
X6328867Y5021884D01*
X6324346Y5019192D01*
X6319520Y5017262D01*
X6316624Y5017008D01*
X6313982Y5017262D01*
X6311646Y5018024D01*
X6307734Y5020767D01*
X6304686Y5023307D01*
X6300063Y5027930D01*
X6296863Y5031689D01*
X6293866Y5035651D01*
X6291072Y5039868D01*
X6288125Y5043830D01*
X6284925Y5047437D01*
X6281420Y5050586D01*
X6266281Y5061356D01*
X6254445Y5068316D01*
X6242050Y5074259D01*
X6229096Y5079238D01*
X6219901Y5081981D01*
X6210096Y5084216D01*
X6199632Y5085842D01*
X6188557Y5086908D01*
X6176873Y5087416D01*
X6161481Y5087315D01*
X6139434Y5086350D01*
X6128766Y5083657D01*
X6113526Y5080863D01*
X6108496Y5079644D01*
X6103518Y5078069D01*
X6098540Y5076190D01*
X6084925Y5069941D01*
X6072073Y5063236D01*
X6059932Y5055971D01*
X6048502Y5048250D01*
X6042609Y5043373D01*
X6025388Y5028184D01*
X6023406Y5026863D01*
X6022289Y5026507D01*
X6019850Y5026304D01*
X6017564Y5025288D01*
X6016498Y5024374D01*
X6013196Y5024628D01*
X6010452Y5025339D01*
X6008268Y5026507D01*
X6006592Y5028184D01*
X6005169Y5030368D01*
X6004052Y5032756D01*
X6003137Y5035448D01*
X6002070Y5041341D01*
X6000648Y5054701D01*
X6000140Y5057851D01*
X5998464Y5063236D01*
X5996635Y5066131D01*
X5994196Y5068824D01*
X5991199Y5071211D01*
X5987542Y5073396D01*
X5977077Y5075478D01*
X5961888Y5076190D01*
X5946902Y5075478D01*
X5936488Y5073396D01*
X5933643Y5072126D01*
X5931204Y5070348D01*
X5929223Y5068062D01*
X5925820Y5062016D01*
X5924550Y5058359D01*
X5923788Y5054244D01*
X5923534Y5049774D01*
X5923534Y4584700D01*
X5923838Y4580229D01*
X5924804Y4576114D01*
X5926378Y4572457D01*
X5928614Y4569206D01*
X5930646Y4567021D01*
X5932881Y4565345D01*
X5935319Y4564126D01*
X5946546Y4561281D01*
X5949442Y4560316D01*
X5969914Y4560366D01*
X5980480Y4560874D01*
X5985510Y4561332D01*
X5990183Y4562195D01*
X5994196Y4563821D01*
X5997651Y4566158D01*
X6000496Y4569206D01*
X6003137Y4573625D01*
X6005068Y4578807D01*
X6006185Y4584700D01*
X6006592Y4591304D01*
X6006592Y4841240D01*
X6006084Y4873752D01*
X6006642Y4889347D01*
X6009386Y4903216D01*
X6013145Y4915306D01*
X6017564Y4926787D01*
X6022644Y4937607D01*
X6028436Y4947818D01*
X6034938Y4957470D01*
X6042050Y4966411D01*
X6049873Y4974793D01*
X6058408Y4982565D01*
X6067602Y4989677D01*
X6077458Y4996180D01*
X6091326Y5003546D01*
X6106922Y5009388D01*
X6115507Y5011521D01*
X6124854Y5012994D01*
X6134811Y5013909D01*
X6145530Y5014214D01*
X6157163Y5014163D01*
X6161481Y5013655D01*
X6174892Y5010556D01*
X6184950Y5007406D01*
X6193790Y5003800D01*
X6201410Y4999736D01*
X6214668Y4988915D01*
X6226556Y4973320D01*
X6231890Y4962804D01*
X6236004Y4951425D01*
X6238900Y4939080D01*
X6240526Y4925822D01*
X6241440Y4911801D01*
X6242456Y4882083D01*
X6242558Y4606290D01*
X6242913Y4592980D01*
X6244082Y4580890D01*
X6245301Y4575454D01*
X6247434Y4570933D01*
X6250533Y4567224D01*
X6254496Y4564380D01*
X6264656Y4561332D01*
X6279388Y4560316D01*
X6292291Y4560570D01*
X6304534Y4561332D01*
X6310071Y4562246D01*
X6314744Y4564075D01*
X6318605Y4566716D01*
X6321552Y4570222D01*
X6323685Y4574133D01*
X6325158Y4578654D01*
X6326073Y4583887D01*
X6326378Y4589780D01*
X6326428Y4853736D01*
X6326886Y4887214D01*
X6327444Y4897932D01*
X6328511Y4908042D01*
X6330238Y4917490D01*
X6332474Y4926330D01*
X6336436Y4936998D01*
X6341059Y4946954D01*
X6346342Y4956302D01*
X6352336Y4964988D01*
X6359042Y4973015D01*
X6366357Y4980381D01*
X6374384Y4987086D01*
X6383121Y4993132D01*
X6392519Y4998567D01*
X6402578Y5003292D01*
X6415786Y5007864D01*
X6432042Y5012182D01*
X6434531Y5012639D01*
X6444488Y5012537D01*
X6449568Y5013198D01*
X6454089Y5014061D01*
X6461506Y5014722D01*
X6469176Y5014823D01*
X6472123Y5014620D01*
X6484721Y5012029D01*
X6491173Y5011420D01*
X6497523Y5010302D01*
X6500622Y5009388D01*
X6515100Y5002987D01*
X6527596Y4995062D01*
X6538112Y4985461D01*
X6546596Y4974336D01*
X6552336Y4963718D01*
X6556705Y4951933D01*
X6559600Y4938928D01*
X6561074Y4924806D01*
X6562242Y4894427D01*
X6562598Y4862322D01*
X6562547Y4623308D01*
X6561937Y4607661D01*
X6562598Y4602226D01*
X6563309Y4599279D01*
X6563715Y4596180D01*
X6563817Y4593031D01*
X6563258Y4586528D01*
X6563309Y4583379D01*
X6563664Y4580280D01*
X6565646Y4573168D01*
X6567424Y4569764D01*
X6569709Y4567174D01*
X6574891Y4563973D01*
X6577888Y4562856D01*
X6581597Y4561992D01*
X6585966Y4561332D01*
X6595668Y4560570D01*
X6605524Y4560316D01*
X6615226Y4560722D01*
X6624574Y4561840D01*
X6628739Y4562703D01*
X6632244Y4563770D01*
X6635191Y4564989D01*
X6637528Y4566412D01*
X6644081Y4577080D01*
X6645909Y4595368D01*
X6645402Y4633214D01*
X6645452Y4928870D01*
X6646062Y4941062D01*
X6645402Y4945380D01*
X6645402Y4954270D01*
X6644792Y4957470D01*
X6644995Y4962499D01*
X6644792Y4964125D01*
X6644233Y4965700D01*
X6643370Y4967224D01*
X6641541Y4977942D01*
X6639559Y4987798D01*
X6637020Y4996891D01*
X6633464Y5005324D01*
X6628231Y5016449D01*
X6621983Y5026812D01*
X6614820Y5036464D01*
X6606641Y5045303D01*
X6597548Y5053482D01*
X6587439Y5060848D01*
X6576415Y5067503D01*
X6564375Y5073396D01*
X6559600Y5074869D01*
X6552692Y5076037D01*
X6547967Y5077307D01*
X6541516Y5079644D01*
X6537401Y5080914D01*
X6511544Y5086350D01*
X6502704Y5086604D01*
X6491274Y5088229D01*
X6483604Y5088890D01*
G37*
G36*
X10064496Y5088382D02*
G01*
X10063073Y5087518D01*
X10060736Y5087010D01*
X10057587Y5086756D01*
X10045700Y5087010D01*
X10040366Y5086350D01*
X10029545Y5084572D01*
X10008666Y5082032D01*
X9998456Y5080254D01*
X9984536Y5076088D01*
X9971379Y5071465D01*
X9959035Y5066436D01*
X9947452Y5060950D01*
X9936632Y5055057D01*
X9926574Y5048758D01*
X9917125Y5041798D01*
X9908235Y5034026D01*
X9899954Y5025390D01*
X9892233Y5015890D01*
X9885121Y5005578D01*
X9878568Y4994402D01*
X9873894Y4983175D01*
X9869932Y4971796D01*
X9866579Y4960010D01*
X9863582Y4947412D01*
X9862820Y4943449D01*
X9862566Y4939588D01*
X9862820Y4935931D01*
X9863582Y4932426D01*
X9864699Y4929124D01*
X9866071Y4926330D01*
X9867646Y4924044D01*
X9869424Y4922266D01*
X9871811Y4920843D01*
X9874808Y4919624D01*
X9878517Y4918557D01*
X9882886Y4917694D01*
X9892588Y4916728D01*
X9902444Y4916424D01*
X9912400Y4916728D01*
X9922002Y4917694D01*
X9926370Y4918557D01*
X9930079Y4919624D01*
X9933076Y4920843D01*
X9935464Y4922266D01*
X9938715Y4925060D01*
X9941407Y4928311D01*
X9943541Y4932019D01*
X9945116Y4936236D01*
X9947605Y4945075D01*
X9950450Y4953254D01*
X9955834Y4963871D01*
X9961880Y4973828D01*
X9965283Y4978298D01*
X9968890Y4982413D01*
X9972649Y4986070D01*
X9976612Y4989322D01*
X9992817Y4999024D01*
X10009378Y5006340D01*
X10022789Y5009845D01*
X10038588Y5012182D01*
X10055809Y5013706D01*
X10073386Y5014214D01*
X10091013Y5013706D01*
X10107930Y5012182D01*
X10123322Y5009591D01*
X10136378Y5005324D01*
X10146334Y5000904D01*
X10155072Y4995722D01*
X10162590Y4989830D01*
X10168890Y4983226D01*
X10174376Y4975606D01*
X10179100Y4966766D01*
X10183114Y4956708D01*
X10186416Y4945380D01*
X10188448Y4930952D01*
X10186416Y4917694D01*
X10184384Y4911750D01*
X10182047Y4906365D01*
X10179405Y4901590D01*
X10176510Y4897374D01*
X10169448Y4889195D01*
X10161270Y4882692D01*
X10151922Y4877917D01*
X10141458Y4874768D01*
X10086797Y4862728D01*
X10072420Y4860950D01*
X10065512Y4859274D01*
X10057841Y4857750D01*
X10054336Y4857343D01*
X10047732Y4857140D01*
X10040975Y4856124D01*
X10037572Y4855210D01*
X10022586Y4852619D01*
X10007600Y4850384D01*
X9992817Y4847844D01*
X9978390Y4844288D01*
X9966299Y4840579D01*
X9954463Y4836668D01*
X9931857Y4828387D01*
X9910572Y4819396D01*
X9900615Y4814316D01*
X9891369Y4808372D01*
X9882835Y4801616D01*
X9875012Y4793996D01*
X9867900Y4785512D01*
X9858654Y4771644D01*
X9855962Y4766818D01*
X9853574Y4761738D01*
X9851390Y4756404D01*
X9843516Y4734306D01*
X9840468Y4712208D01*
X9840468Y4691380D01*
X9929368Y4691380D01*
X9929977Y4711649D01*
X9933432Y4728718D01*
X9939731Y4743145D01*
X9948418Y4755388D01*
X9959543Y4765395D01*
X9972548Y4773676D01*
X9987026Y4780686D01*
X10002520Y4786376D01*
X10031476Y4793234D01*
X10047071Y4796434D01*
X10080904Y4799177D01*
X10096500Y4802378D01*
X10100360Y4802479D01*
X10107320Y4803292D01*
X10110470Y4803394D01*
X10130536Y4807204D01*
X10148570Y4811268D01*
X10152684Y4812792D01*
X10161778Y4813808D01*
X10163352Y4814468D01*
X10164572Y4815332D01*
X10169550Y4815179D01*
X10173512Y4814824D01*
X10176510Y4814163D01*
X10178542Y4813300D01*
X10181590Y4810506D01*
X10183926Y4807254D01*
X10185552Y4803546D01*
X10186416Y4799330D01*
X10187178Y4789728D01*
X10187432Y4779264D01*
X10187330Y4759655D01*
X10186924Y4740910D01*
X10185095Y4723485D01*
X10180574Y4708398D01*
X10174427Y4694580D01*
X10167112Y4682286D01*
X10158679Y4671568D01*
X10149078Y4662424D01*
X10138257Y4654194D01*
X10126421Y4646625D01*
X10113518Y4639614D01*
X10099548Y4633214D01*
X10092385Y4630877D01*
X10085070Y4629404D01*
X10077399Y4628134D01*
X10066528Y4625492D01*
X10060432Y4624730D01*
X10054437Y4624933D01*
X10048494Y4624171D01*
X10041788Y4622444D01*
X10037622Y4621936D01*
X10033000Y4621682D01*
X10027920Y4621784D01*
X10018318Y4622647D01*
X10010394Y4624324D01*
X10005517Y4625086D01*
X9997948Y4625390D01*
X9993020Y4625898D01*
X9990582Y4626356D01*
X9976053Y4631893D01*
X9962388Y4638802D01*
X9950704Y4647234D01*
X9941560Y4657344D01*
X9939121Y4660900D01*
X9934803Y4668621D01*
X9932924Y4672838D01*
X9931349Y4677156D01*
X9930231Y4681677D01*
X9929571Y4686401D01*
X9929368Y4691380D01*
X9840468Y4691380D01*
X9841026Y4676444D01*
X9842754Y4662627D01*
X9845598Y4649876D01*
X9849612Y4638294D01*
X9856012Y4624171D01*
X9863175Y4611674D01*
X9871252Y4600905D01*
X9880092Y4591812D01*
X9889998Y4583785D01*
X9901377Y4576216D01*
X9914229Y4569053D01*
X9928606Y4562348D01*
X9935768Y4559706D01*
X9943592Y4557776D01*
X9955530Y4555185D01*
X9960965Y4553813D01*
X9963658Y4553559D01*
X9966299Y4553864D01*
X9969601Y4553610D01*
X9975799Y4551883D01*
X9978034Y4551527D01*
X9982962Y4551375D01*
X9988042Y4550867D01*
X9990582Y4550410D01*
X9999472Y4550410D01*
X10004501Y4549648D01*
X10009682Y4549394D01*
X10015067Y4549648D01*
X10020554Y4550410D01*
X10029799Y4550460D01*
X10034117Y4550968D01*
X10042042Y4552289D01*
X10064648Y4554829D01*
X10070134Y4555744D01*
X10080498Y4558284D01*
X10097008Y4563668D01*
X10112502Y4569714D01*
X10126980Y4576622D01*
X10140442Y4584192D01*
X10149636Y4590796D01*
X10158984Y4598416D01*
X10163810Y4602073D01*
X10168839Y4605070D01*
X10174071Y4607509D01*
X10179558Y4609338D01*
X10181386Y4609642D01*
X10183063Y4609592D01*
X10184536Y4609134D01*
X10187127Y4607306D01*
X10189413Y4605274D01*
X10193375Y4601108D01*
X10196017Y4597450D01*
X10198354Y4593336D01*
X10202468Y4584192D01*
X10207040Y4575962D01*
X10209530Y4572254D01*
X10220858Y4562144D01*
X10238994Y4553712D01*
X10249814Y4550816D01*
X10260634Y4549444D01*
X10271506Y4549648D01*
X10282428Y4551426D01*
X10288422Y4552746D01*
X10299395Y4553712D01*
X10304526Y4555236D01*
X10309250Y4558131D01*
X10313466Y4561636D01*
X10317226Y4565853D01*
X10320528Y4570730D01*
X10324236Y4582718D01*
X10323576Y4597400D01*
X10322814Y4601768D01*
X10322560Y4605274D01*
X10322052Y4608322D01*
X10320528Y4611370D01*
X10318242Y4614926D01*
X10315498Y4617669D01*
X10312298Y4619599D01*
X10308590Y4620768D01*
X10304475Y4621682D01*
X10295991Y4624476D01*
X10287711Y4628134D01*
X10284206Y4630369D01*
X10281107Y4633061D01*
X10278364Y4636262D01*
X10276179Y4640630D01*
X10274503Y4645609D01*
X10273284Y4651146D01*
X10272522Y4657344D01*
X10271760Y4670552D01*
X10271506Y4684268D01*
X10271404Y4919573D01*
X10271150Y4933645D01*
X10269982Y4960874D01*
X10268762Y4973675D01*
X10266629Y4985715D01*
X10263530Y4996942D01*
X10259568Y5007356D01*
X10253827Y5018887D01*
X10247071Y5029403D01*
X10239400Y5039004D01*
X10230713Y5047589D01*
X10221112Y5055260D01*
X10210495Y5061915D01*
X10198963Y5067655D01*
X10186416Y5072380D01*
X10175849Y5075580D01*
X10164978Y5078476D01*
X10153700Y5080965D01*
X10142016Y5083098D01*
X10130028Y5084876D01*
X10117632Y5086299D01*
X10104932Y5087366D01*
X10091826Y5088077D01*
X10078313Y5088382D01*
G37*
G36*
X8636508Y5087366D02*
G01*
X8624062Y5085842D01*
X8610600Y5085334D01*
X8596426Y5081879D01*
X8582406Y5079746D01*
X8568944Y5077409D01*
X8556498Y5073396D01*
X8529574Y5061712D01*
X8516670Y5055666D01*
X8504428Y5048250D01*
X8494369Y5041290D01*
X8484819Y5033822D01*
X8475827Y5025847D01*
X8467394Y5017312D01*
X8459470Y5008270D01*
X8452104Y4998720D01*
X8445093Y4988712D01*
X8438438Y4978247D01*
X8432190Y4967427D01*
X8426246Y4956149D01*
X8420709Y4944516D01*
X8413140Y4926787D01*
X8411108Y4921046D01*
X8409330Y4915255D01*
X8403945Y4891278D01*
X8401354Y4878679D01*
X8399526Y4868418D01*
X8398713Y4864862D01*
X8398256Y4861306D01*
X8398205Y4857750D01*
X8398814Y4850739D01*
X8398764Y4847285D01*
X8398306Y4843780D01*
X8396579Y4836871D01*
X8395970Y4832654D01*
X8395612Y4828235D01*
X8484819Y4828235D01*
X8485073Y4831791D01*
X8485378Y4833366D01*
X8485632Y4841036D01*
X8488172Y4857191D01*
X8490051Y4873091D01*
X8492134Y4883251D01*
X8493506Y4888230D01*
X8499195Y4903724D01*
X8505444Y4918252D01*
X8512200Y4931816D01*
X8519414Y4944364D01*
X8527491Y4955895D01*
X8536686Y4966512D01*
X8547049Y4976317D01*
X8566556Y4991354D01*
X8569452Y4993386D01*
X8575751Y4996738D01*
X8579002Y4998110D01*
X8582406Y4999228D01*
X8590584Y5002936D01*
X8598916Y5005832D01*
X8607856Y5008219D01*
X8617458Y5010404D01*
X8635492Y5013198D01*
X8657945Y5013096D01*
X8666429Y5012182D01*
X8690457Y5007000D01*
X8694216Y5005984D01*
X8701532Y5003292D01*
X8713368Y4997907D01*
X8724595Y4991709D01*
X8735161Y4984750D01*
X8745016Y4976977D01*
X8754211Y4968392D01*
X8762796Y4958994D01*
X8770670Y4948783D01*
X8777935Y4937760D01*
X8784488Y4925974D01*
X8790432Y4913376D01*
X8793226Y4906060D01*
X8797798Y4890312D01*
X8800592Y4882388D01*
X8802674Y4872990D01*
X8804402Y4862982D01*
X8805722Y4852263D01*
X8806688Y4840935D01*
X8807246Y4828997D01*
X8808059Y4794910D01*
X8807856Y4790744D01*
X8807297Y4786884D01*
X8803081Y4769459D01*
X8801100Y4755896D01*
X8798661Y4742637D01*
X8794496Y4730242D01*
X8789619Y4719167D01*
X8784386Y4708550D01*
X8778748Y4698492D01*
X8772702Y4688941D01*
X8766251Y4679848D01*
X8759444Y4671314D01*
X8752128Y4663287D01*
X8744102Y4655921D01*
X8735314Y4649063D01*
X8725814Y4642866D01*
X8715552Y4637227D01*
X8704580Y4632198D01*
X8697264Y4629708D01*
X8689594Y4627880D01*
X8681516Y4626254D01*
X8673592Y4624324D01*
X8671560Y4623460D01*
X8669528Y4622901D01*
X8667496Y4622698D01*
X8661450Y4622952D01*
X8657590Y4622292D01*
X8654796Y4621479D01*
X8651443Y4621022D01*
X8647531Y4620971D01*
X8638692Y4621784D01*
X8632342Y4622800D01*
X8628024Y4623714D01*
X8623300Y4623968D01*
X8618728Y4623714D01*
X8614003Y4624476D01*
X8611616Y4625340D01*
X8600897Y4628438D01*
X8591042Y4631690D01*
X8586317Y4633569D01*
X8577580Y4637887D01*
X8566454Y4644339D01*
X8555482Y4650232D01*
X8545880Y4657648D01*
X8537041Y4665980D01*
X8529116Y4675174D01*
X8521954Y4685284D01*
X8515451Y4696002D01*
X8509355Y4707077D01*
X8503767Y4718456D01*
X8496706Y4734407D01*
X8495131Y4738674D01*
X8493912Y4743145D01*
X8487410Y4779264D01*
X8486495Y4783429D01*
X8485479Y4792472D01*
X8485225Y4821986D01*
X8484819Y4828235D01*
X8395612Y4828235D01*
X8395462Y4821682D01*
X8395716Y4811115D01*
X8396020Y4807305D01*
X8397443Y4797653D01*
X8397494Y4787392D01*
X8399170Y4779213D01*
X8400897Y4762449D01*
X8403234Y4750663D01*
X8402980Y4746396D01*
X8403742Y4743246D01*
X8404606Y4741418D01*
X8406587Y4730546D01*
X8408924Y4720336D01*
X8410346Y4715256D01*
X8412124Y4710226D01*
X8414156Y4705248D01*
X8416544Y4700270D01*
X8421471Y4688992D01*
X8426704Y4678172D01*
X8432241Y4667758D01*
X8438083Y4657801D01*
X8444230Y4648250D01*
X8450681Y4639157D01*
X8457488Y4630521D01*
X8464550Y4622292D01*
X8472017Y4614468D01*
X8480044Y4607052D01*
X8488527Y4599990D01*
X8497519Y4593285D01*
X8507018Y4586935D01*
X8516975Y4580991D01*
X8527491Y4575403D01*
X8538464Y4570222D01*
X8550706Y4565599D01*
X8563610Y4561332D01*
X8590534Y4553204D01*
X8614410Y4550410D01*
X8620506Y4550410D01*
X8623808Y4549800D01*
X8631478Y4550054D01*
X8639606Y4548632D01*
X8645906Y4548378D01*
X8652611Y4548632D01*
X8657590Y4549394D01*
X8670036Y4549902D01*
X8679434Y4550968D01*
X8695334Y4553254D01*
X8714130Y4556404D01*
X8720124Y4557776D01*
X8725916Y4559452D01*
X8744000Y4565853D01*
X8756040Y4570831D01*
X8767521Y4576267D01*
X8778544Y4582210D01*
X8789060Y4588662D01*
X8799068Y4595571D01*
X8808618Y4602988D01*
X8817610Y4610862D01*
X8826093Y4619244D01*
X8834170Y4628083D01*
X8841790Y4637430D01*
X8849004Y4647234D01*
X8855760Y4657547D01*
X8862110Y4668367D01*
X8868003Y4679645D01*
X8873490Y4691380D01*
X8875877Y4696968D01*
X8878062Y4702810D01*
X8879992Y4708906D01*
X8884716Y4728260D01*
X8890152Y4747310D01*
X8891930Y4759248D01*
X8893556Y4765294D01*
X8896604Y4794250D01*
X8896604Y4804410D01*
X8897162Y4811115D01*
X8897366Y4821682D01*
X8897264Y4827625D01*
X8896908Y4832654D01*
X8896350Y4836871D01*
X8895181Y4842814D01*
X8894927Y4848148D01*
X8895232Y4853533D01*
X8894978Y4858766D01*
X8891778Y4874107D01*
X8888425Y4892954D01*
X8885885Y4904740D01*
X8884412Y4910328D01*
X8875928Y4936388D01*
X8871813Y4946294D01*
X8863888Y4963160D01*
X8857742Y4974691D01*
X8850884Y4985715D01*
X8843416Y4996332D01*
X8835288Y5006492D01*
X8826449Y5016144D01*
X8817000Y5025390D01*
X8806840Y5034127D01*
X8796070Y5042408D01*
X8784590Y5050282D01*
X8774531Y5056378D01*
X8764016Y5061915D01*
X8753144Y5066893D01*
X8741816Y5071313D01*
X8730132Y5075224D01*
X8717991Y5078628D01*
X8705443Y5081422D01*
X8692489Y5083708D01*
X8679078Y5085435D01*
X8665311Y5086604D01*
X8651138Y5087264D01*
G37*
G36*
X9237472Y5087366D02*
G01*
X9214612Y5084318D01*
X9188551Y5077307D01*
X9183674Y5075631D01*
X9179001Y5073650D01*
X9160002Y5063794D01*
X9144508Y5053330D01*
X9130284Y5041595D01*
X9119616Y5030216D01*
X9113520Y5024374D01*
X9107982Y5017465D01*
X9101582Y5008880D01*
X9097772Y5004663D01*
X9093504Y5001615D01*
X9088780Y4999837D01*
X9083548Y4999228D01*
X9079992Y5002834D01*
X9078976Y5004358D01*
X9076690Y5009438D01*
X9075420Y5013909D01*
X9074658Y5018684D01*
X9074404Y5023866D01*
X9074251Y5048402D01*
X9073845Y5053025D01*
X9073134Y5057444D01*
X9072118Y5061712D01*
X9070492Y5065674D01*
X9068155Y5068976D01*
X9065158Y5071516D01*
X9061450Y5073396D01*
X9058656Y5074259D01*
X9051696Y5075631D01*
X9043009Y5076596D01*
X9038539Y5076850D01*
X9029446Y5076698D01*
X9020860Y5075885D01*
X9012936Y5074412D01*
X9009532Y5073243D01*
X9006636Y5071872D01*
X9004300Y5070195D01*
X9002522Y5068316D01*
X9000286Y5064607D01*
X8998559Y5060645D01*
X8997492Y5056378D01*
X8996934Y5051806D01*
X8996527Y5041950D01*
X8996527Y4597450D01*
X8996934Y4586732D01*
X8997492Y4581753D01*
X8998559Y4577130D01*
X9000286Y4572965D01*
X9002522Y4569206D01*
X9003690Y4567885D01*
X9005112Y4566716D01*
X9008872Y4564888D01*
X9018524Y4561332D01*
X9042450Y4561382D01*
X9053626Y4561890D01*
X9058910Y4562348D01*
X9063888Y4563211D01*
X9068104Y4564837D01*
X9071610Y4567174D01*
X9074404Y4570222D01*
X9076588Y4573371D01*
X9078112Y4576775D01*
X9078874Y4580382D01*
X9078823Y4588408D01*
X9079077Y4597958D01*
X9079941Y4608880D01*
X9080449Y4620412D01*
X9080500Y4772406D01*
X9079992Y4801870D01*
X9080347Y4816500D01*
X9082938Y4831842D01*
X9083192Y4836769D01*
X9082887Y4841748D01*
X9083141Y4846828D01*
X9083548Y4849368D01*
X9086291Y4861153D01*
X9088374Y4872736D01*
X9090914Y4884216D01*
X9094470Y4895342D01*
X9101277Y4909413D01*
X9108694Y4922723D01*
X9116771Y4935220D01*
X9125458Y4946904D01*
X9135160Y4957470D01*
X9146235Y4966919D01*
X9158630Y4975148D01*
X9172448Y4982210D01*
X9178036Y4984597D01*
X9183827Y4986782D01*
X9189821Y4988712D01*
X9208922Y4993335D01*
X9222486Y4996180D01*
X9227972Y4997551D01*
X9233458Y4998618D01*
X9238996Y4999329D01*
X9244584Y4999736D01*
X9249765Y5000447D01*
X9254286Y5002123D01*
X9258249Y5004765D01*
X9261602Y5008372D01*
X9263735Y5011521D01*
X9265208Y5015026D01*
X9266123Y5018989D01*
X9266428Y5023358D01*
X9266428Y5042408D01*
X9265666Y5061661D01*
X9263380Y5075682D01*
X9255506Y5084419D01*
G37*
G36*
X5606237Y5086400D02*
G01*
X5592572Y5086350D01*
X5591505Y5085537D01*
X5590286Y5085080D01*
X5588965Y5085029D01*
X5584698Y5085842D01*
X5582412Y5085334D01*
X5573522Y5084826D01*
X5564378Y5083302D01*
X5537962Y5077714D01*
X5525668Y5074615D01*
X5513578Y5070348D01*
X5500217Y5064455D01*
X5487619Y5058054D01*
X5475732Y5051145D01*
X5464606Y5043830D01*
X5454192Y5036007D01*
X5444490Y5027676D01*
X5435346Y5018938D01*
X5426506Y5009692D01*
X5418023Y4999888D01*
X5409844Y4989525D01*
X5401970Y4978654D01*
X5394452Y4967224D01*
X5388914Y4956200D01*
X5379313Y4933391D01*
X5374386Y4922266D01*
X5369356Y4907788D01*
X5366004Y4892294D01*
X5364937Y4886401D01*
X5450281Y4886401D01*
X5450332Y4890566D01*
X5450789Y4894935D01*
X5452567Y4903774D01*
X5455005Y4912004D01*
X5457952Y4919472D01*
X5461000Y4925669D01*
X5469737Y4941265D01*
X5477408Y4953050D01*
X5485485Y4963769D01*
X5494020Y4973320D01*
X5503519Y4981956D01*
X5514390Y4989830D01*
X5526735Y4996942D01*
X5540502Y5003292D01*
X5554980Y5006848D01*
X5562650Y5008473D01*
X5572048Y5010810D01*
X5573776Y5011064D01*
X5579465Y5010810D01*
X5581192Y5010962D01*
X5582869Y5011420D01*
X5584444Y5012182D01*
X5605932Y5012080D01*
X5614466Y5011166D01*
X5637022Y5006035D01*
X5647436Y5003292D01*
X5660390Y4997500D01*
X5672023Y4991100D01*
X5682335Y4984038D01*
X5691378Y4976368D01*
X5699709Y4967935D01*
X5707684Y4958588D01*
X5715355Y4948377D01*
X5722620Y4937252D01*
X5727750Y4927549D01*
X5732272Y4917490D01*
X5736132Y4907127D01*
X5739384Y4896358D01*
X5740146Y4892852D01*
X5740400Y4889449D01*
X5740146Y4886096D01*
X5738418Y4879746D01*
X5737301Y4876952D01*
X5735980Y4874412D01*
X5734558Y4872228D01*
X5723991Y4866436D01*
X5706618Y4864862D01*
X5687060Y4865268D01*
X5503062Y4865268D01*
X5484876Y4864862D01*
X5468366Y4865928D01*
X5457444Y4870196D01*
X5454802Y4872482D01*
X5452821Y4875276D01*
X5451398Y4878578D01*
X5450586Y4882388D01*
X5450281Y4886401D01*
X5364937Y4886401D01*
X5363108Y4876292D01*
X5359400Y4860290D01*
X5358790Y4855159D01*
X5358841Y4844389D01*
X5358384Y4841798D01*
X5357622Y4839208D01*
X5357622Y4828286D01*
X5357012Y4822647D01*
X5357114Y4815840D01*
X5357672Y4809185D01*
X5358384Y4804410D01*
X5358384Y4790186D01*
X5360162Y4781296D01*
X5362702Y4763566D01*
X5364480Y4755388D01*
X5365242Y4750816D01*
X5365750Y4744008D01*
X5366512Y4740402D01*
X5370169Y4728260D01*
X5374436Y4710379D01*
X5376113Y4704588D01*
X5378094Y4698949D01*
X5385308Y4682236D01*
X5390540Y4671415D01*
X5396077Y4660950D01*
X5402021Y4650841D01*
X5408371Y4641088D01*
X5415026Y4631690D01*
X5422138Y4622800D01*
X5429656Y4614316D01*
X5437682Y4606340D01*
X5446166Y4598822D01*
X5455158Y4591812D01*
X5464556Y4585208D01*
X5481066Y4576013D01*
X5496560Y4568190D01*
X5500319Y4566716D01*
X5506720Y4564989D01*
X5510530Y4563364D01*
X5518708Y4560468D01*
X5527548Y4557776D01*
X5545582Y4553204D01*
X5550712Y4552289D01*
X5562295Y4551222D01*
X5571490Y4549648D01*
X5579821Y4549140D01*
X5584444Y4548378D01*
X5593588Y4548378D01*
X5598109Y4547616D01*
X5604002Y4547362D01*
X5610148Y4547616D01*
X5615432Y4548378D01*
X5625592Y4548378D01*
X5630367Y4549140D01*
X5637276Y4549444D01*
X5642000Y4549952D01*
X5670448Y4554626D01*
X5680456Y4557420D01*
X5698134Y4563821D01*
X5709970Y4568799D01*
X5721096Y4574184D01*
X5731459Y4579975D01*
X5741111Y4586173D01*
X5750052Y4592828D01*
X5758383Y4599990D01*
X5766409Y4607814D01*
X5774131Y4616246D01*
X5781548Y4625340D01*
X5788660Y4635042D01*
X5795518Y4645406D01*
X5801715Y4656226D01*
X5807252Y4667808D01*
X5812231Y4680204D01*
X5816600Y4693412D01*
X5817768Y4707128D01*
X5811520Y4716272D01*
X5809691Y4717694D01*
X5807252Y4718812D01*
X5804255Y4719726D01*
X5796483Y4720793D01*
X5787999Y4721555D01*
X5779008Y4722012D01*
X5774486Y4722012D01*
X5765546Y4721352D01*
X5757722Y4720082D01*
X5754827Y4719269D01*
X5752592Y4718304D01*
X5747410Y4715408D01*
X5743143Y4711750D01*
X5739688Y4707382D01*
X5737098Y4702302D01*
X5732119Y4691583D01*
X5723382Y4675835D01*
X5720029Y4670704D01*
X5716371Y4665675D01*
X5712460Y4660900D01*
X5703773Y4651959D01*
X5693410Y4644390D01*
X5688380Y4640986D01*
X5683148Y4637938D01*
X5677712Y4635144D01*
X5672074Y4632706D01*
X5659831Y4628438D01*
X5646420Y4624324D01*
X5630214Y4621276D01*
X5609590Y4620260D01*
X5588762Y4621276D01*
X5572506Y4624324D01*
X5566460Y4624578D01*
X5562600Y4625340D01*
X5544972Y4630369D01*
X5538520Y4632807D01*
X5525160Y4639157D01*
X5515457Y4644694D01*
X5506415Y4650841D01*
X5497931Y4657648D01*
X5490006Y4665014D01*
X5482742Y4673041D01*
X5476036Y4681626D01*
X5469890Y4690872D01*
X5464403Y4700727D01*
X5457545Y4715256D01*
X5454497Y4723536D01*
X5449112Y4746244D01*
X5448604Y4750308D01*
X5448503Y4754422D01*
X5447995Y4758842D01*
X5446776Y4763820D01*
X5446522Y4766411D01*
X5446776Y4769154D01*
X5447538Y4771898D01*
X5449570Y4776673D01*
X5451602Y4780280D01*
X5453532Y4783074D01*
X5455462Y4785360D01*
X5457444Y4787138D01*
X5459476Y4788408D01*
X5462168Y4789678D01*
X5465267Y4790643D01*
X5468670Y4791303D01*
X5476494Y4791913D01*
X5484469Y4792167D01*
X5744464Y4792218D01*
X5777484Y4791303D01*
X5789422Y4791202D01*
X5800902Y4791608D01*
X5811012Y4792726D01*
X5815431Y4793640D01*
X5819343Y4794910D01*
X5822696Y4796434D01*
X5825490Y4798314D01*
X5827826Y4801311D01*
X5829655Y4805222D01*
X5831128Y4810099D01*
X5832094Y4815840D01*
X5832652Y4821885D01*
X5832754Y4827676D01*
X5832398Y4833061D01*
X5831128Y4841748D01*
X5829452Y4859324D01*
X5828538Y4866386D01*
X5824880Y4880356D01*
X5818835Y4908042D01*
X5814568Y4921250D01*
X5809742Y4934254D01*
X5805424Y4947412D01*
X5800801Y4959858D01*
X5794502Y4971288D01*
X5788710Y4980940D01*
X5782310Y4990846D01*
X5775248Y5001006D01*
X5767578Y5011420D01*
X5760923Y5019344D01*
X5753100Y5027422D01*
X5744667Y5034838D01*
X5736590Y5041392D01*
X5732780Y5043728D01*
X5727852Y5048402D01*
X5725972Y5049926D01*
X5708650Y5059883D01*
X5694984Y5066639D01*
X5680608Y5072583D01*
X5665470Y5077714D01*
X5654852Y5080609D01*
X5643575Y5082946D01*
X5631738Y5084673D01*
X5619292Y5085842D01*
G37*
G36*
X9552127Y5086400D02*
G01*
X9538462Y5086350D01*
X9537395Y5085537D01*
X9536176Y5085080D01*
X9534855Y5085029D01*
X9530791Y5085842D01*
X9528556Y5085334D01*
X9519412Y5084826D01*
X9510522Y5083302D01*
X9484106Y5077714D01*
X9471609Y5074615D01*
X9459468Y5070348D01*
X9446209Y5064455D01*
X9433610Y5058054D01*
X9421723Y5051145D01*
X9410598Y5043830D01*
X9400133Y5036007D01*
X9390380Y5027676D01*
X9381236Y5018938D01*
X9372447Y5009692D01*
X9363964Y4999888D01*
X9355836Y4989525D01*
X9348063Y4978654D01*
X9340596Y4967224D01*
X9334855Y4956200D01*
X9329928Y4944872D01*
X9325406Y4933391D01*
X9320530Y4922266D01*
X9315297Y4907788D01*
X9311894Y4892294D01*
X9310883Y4886401D01*
X9396171Y4886401D01*
X9396222Y4890566D01*
X9396679Y4894935D01*
X9397492Y4899406D01*
X9399778Y4907991D01*
X9402572Y4915916D01*
X9405416Y4922723D01*
X9415627Y4941265D01*
X9423247Y4953050D01*
X9431375Y4963769D01*
X9439910Y4973320D01*
X9449409Y4981956D01*
X9460280Y4989830D01*
X9472625Y4996942D01*
X9486392Y5003292D01*
X9500870Y5006848D01*
X9508540Y5008473D01*
X9517938Y5010810D01*
X9519666Y5011064D01*
X9525457Y5010810D01*
X9527286Y5010962D01*
X9529013Y5011420D01*
X9530588Y5012182D01*
X9551974Y5012080D01*
X9560356Y5011166D01*
X9586518Y5005222D01*
X9593580Y5003292D01*
X9606432Y4997500D01*
X9618014Y4991100D01*
X9628378Y4984038D01*
X9637522Y4976368D01*
X9645853Y4967935D01*
X9653778Y4958588D01*
X9661347Y4948377D01*
X9668510Y4937252D01*
X9673691Y4927549D01*
X9678212Y4917490D01*
X9682175Y4907127D01*
X9685528Y4896358D01*
X9686290Y4892852D01*
X9686544Y4889449D01*
X9686290Y4886096D01*
X9685528Y4882896D01*
X9684461Y4879746D01*
X9681921Y4874412D01*
X9680448Y4872228D01*
X9670034Y4866436D01*
X9652508Y4864862D01*
X9632950Y4865268D01*
X9449155Y4865268D01*
X9431020Y4864862D01*
X9414357Y4865928D01*
X9403588Y4870196D01*
X9400844Y4872482D01*
X9398762Y4875276D01*
X9397288Y4878578D01*
X9396476Y4882388D01*
X9396171Y4886401D01*
X9310883Y4886401D01*
X9309150Y4876292D01*
X9305544Y4860290D01*
X9304934Y4855159D01*
X9305137Y4847132D01*
X9304934Y4844389D01*
X9304375Y4841798D01*
X9303512Y4839208D01*
X9303512Y4828286D01*
X9302902Y4822647D01*
X9303004Y4815840D01*
X9303613Y4809185D01*
X9304528Y4804410D01*
X9304528Y4790186D01*
X9306306Y4781296D01*
X9308795Y4763566D01*
X9311132Y4750816D01*
X9311640Y4744008D01*
X9312402Y4740402D01*
X9316110Y4728260D01*
X9320428Y4710379D01*
X9322104Y4704588D01*
X9324086Y4698949D01*
X9331299Y4682236D01*
X9336532Y4671415D01*
X9342120Y4660950D01*
X9348063Y4650841D01*
X9354312Y4641088D01*
X9360916Y4631690D01*
X9368028Y4622800D01*
X9375546Y4614316D01*
X9383572Y4606340D01*
X9392056Y4598822D01*
X9401048Y4591812D01*
X9410446Y4585208D01*
X9426956Y4576013D01*
X9442450Y4568190D01*
X9446260Y4566716D01*
X9451136Y4565548D01*
X9456420Y4563364D01*
X9464751Y4560468D01*
X9473438Y4557776D01*
X9491472Y4553204D01*
X9496755Y4552289D01*
X9508236Y4551222D01*
X9517430Y4549648D01*
X9525762Y4549140D01*
X9530588Y4548378D01*
X9539478Y4548378D01*
X9544100Y4547616D01*
X9549892Y4547362D01*
X9556089Y4547616D01*
X9561576Y4548378D01*
X9571482Y4548378D01*
X9576358Y4549140D01*
X9585604Y4549648D01*
X9616592Y4554626D01*
X9626498Y4557420D01*
X9644075Y4563821D01*
X9655962Y4568799D01*
X9667087Y4574184D01*
X9677501Y4579975D01*
X9687102Y4586173D01*
X9695942Y4592828D01*
X9704324Y4599990D01*
X9712401Y4607814D01*
X9720122Y4616246D01*
X9727539Y4625340D01*
X9734651Y4635042D01*
X9741408Y4645406D01*
X9747656Y4656226D01*
X9753295Y4667808D01*
X9758222Y4680204D01*
X9762490Y4693412D01*
X9763760Y4707128D01*
X9757410Y4716272D01*
X9755682Y4717694D01*
X9753295Y4718812D01*
X9750196Y4719726D01*
X9742474Y4720793D01*
X9733940Y4721555D01*
X9724999Y4722012D01*
X9716008Y4721758D01*
X9707270Y4720793D01*
X9700818Y4719269D01*
X9698482Y4718304D01*
X9693402Y4715408D01*
X9689134Y4711750D01*
X9685680Y4707382D01*
X9682988Y4702302D01*
X9678111Y4691583D01*
X9672574Y4681220D01*
X9669424Y4675835D01*
X9662414Y4665675D01*
X9658604Y4660900D01*
X9649764Y4651959D01*
X9639554Y4644390D01*
X9634372Y4640986D01*
X9629089Y4637938D01*
X9623602Y4635144D01*
X9617964Y4632706D01*
X9605873Y4628438D01*
X9592564Y4624324D01*
X9576308Y4621276D01*
X9555480Y4620260D01*
X9534652Y4621276D01*
X9518396Y4624324D01*
X9512503Y4624578D01*
X9508490Y4625340D01*
X9487712Y4631486D01*
X9471253Y4639157D01*
X9461550Y4644694D01*
X9452406Y4650841D01*
X9443872Y4657648D01*
X9435947Y4665014D01*
X9428632Y4673041D01*
X9421926Y4681626D01*
X9415830Y4690872D01*
X9410293Y4700727D01*
X9403588Y4715256D01*
X9400641Y4723536D01*
X9395002Y4746244D01*
X9394494Y4750308D01*
X9394393Y4754422D01*
X9393885Y4758842D01*
X9392666Y4763820D01*
X9392412Y4766411D01*
X9392666Y4769154D01*
X9393428Y4771898D01*
X9395460Y4776673D01*
X9397492Y4780280D01*
X9399524Y4783074D01*
X9401505Y4785360D01*
X9403435Y4787138D01*
X9405366Y4788408D01*
X9408109Y4789678D01*
X9411208Y4790643D01*
X9414713Y4791303D01*
X9422536Y4791913D01*
X9430512Y4792167D01*
X9690608Y4792218D01*
X9729470Y4791252D01*
X9741357Y4791303D01*
X9752025Y4792065D01*
X9756902Y4792726D01*
X9761423Y4793640D01*
X9765334Y4794910D01*
X9768687Y4796434D01*
X9771380Y4798314D01*
X9773716Y4801311D01*
X9775545Y4805222D01*
X9777018Y4810099D01*
X9777984Y4815840D01*
X9778542Y4821885D01*
X9778593Y4827676D01*
X9778288Y4833061D01*
X9776561Y4845304D01*
X9774428Y4866386D01*
X9770821Y4880356D01*
X9768078Y4894326D01*
X9764877Y4908042D01*
X9760458Y4921250D01*
X9755682Y4934254D01*
X9751568Y4947412D01*
X9746742Y4959858D01*
X9740392Y4971288D01*
X9734600Y4980940D01*
X9728200Y4990846D01*
X9721138Y5001006D01*
X9713468Y5011420D01*
X9706813Y5019344D01*
X9698990Y5027422D01*
X9690658Y5034838D01*
X9682480Y5041392D01*
X9678670Y5043728D01*
X9675368Y5046726D01*
X9673844Y5048402D01*
X9672015Y5049926D01*
X9667494Y5052314D01*
X9654641Y5059883D01*
X9641078Y5066639D01*
X9626752Y5072583D01*
X9611614Y5077714D01*
X9600895Y5080609D01*
X9589617Y5082946D01*
X9577679Y5084673D01*
X9565233Y5085842D01*
G37*
G36*
X6782562Y5075682D02*
G01*
X6752590Y5075174D01*
X6750456Y5074716D01*
X6745579Y5074920D01*
X6739381Y5073192D01*
X6736029Y5071618D01*
X6733387Y5069636D01*
X6731508Y5067300D01*
X6729526Y5063540D01*
X6728714Y5059375D01*
X6729018Y5054752D01*
X6730492Y5049774D01*
X6736588Y5033264D01*
X6745274Y5011470D01*
X6761988Y4967935D01*
X6780377Y4923282D01*
X6842506Y4769358D01*
X6852412Y4742180D01*
X6857746Y4728972D01*
X6863588Y4715256D01*
X6887768Y4653280D01*
X6908038Y4604258D01*
X6913321Y4589780D01*
X6918452Y4574286D01*
X6920331Y4560570D01*
X6917944Y4547362D01*
X6913575Y4535373D01*
X6909562Y4525264D01*
X6892086Y4483760D01*
X6885431Y4470908D01*
X6877862Y4458919D01*
X6868922Y4448302D01*
X6858152Y4439615D01*
X6844538Y4433316D01*
X6839305Y4431538D01*
X6833666Y4430268D01*
X6827723Y4429506D01*
X6821424Y4429252D01*
X6808978Y4429760D01*
X6803136Y4430369D01*
X6797548Y4431284D01*
X6783019Y4432300D01*
X6773418Y4425188D01*
X6772046Y4423105D01*
X6771081Y4420666D01*
X6770420Y4417923D01*
X6769912Y4411573D01*
X6769658Y4404817D01*
X6769912Y4387189D01*
X6770522Y4378706D01*
X6771589Y4374946D01*
X6773214Y4371492D01*
X6777685Y4365498D01*
X6780326Y4363262D01*
X6783425Y4361586D01*
X6790690Y4359402D01*
X6802374Y4356354D01*
X6807962Y4356100D01*
X6816496Y4354576D01*
X6820458Y4354322D01*
X6824472Y4354576D01*
X6831431Y4355744D01*
X6837172Y4355744D01*
X6842709Y4355033D01*
X6845350Y4355084D01*
X6847941Y4355541D01*
X6850380Y4356354D01*
X6863791Y4359452D01*
X6875525Y4362704D01*
X6880961Y4364634D01*
X6891934Y4369460D01*
X6897370Y4372356D01*
X6907631Y4379518D01*
X6917131Y4387545D01*
X6925868Y4396486D01*
X6933844Y4406341D01*
X6941007Y4417110D01*
X6947408Y4428744D01*
X6959193Y4453178D01*
X6970572Y4477715D01*
X6981444Y4502404D01*
X6986676Y4519218D01*
X6988556Y4524248D01*
X7002780Y4558842D01*
X7020966Y4605121D01*
X7038238Y4651552D01*
X7055205Y4698187D01*
X7073036Y4744618D01*
X7082281Y4767783D01*
X7096506Y4802378D01*
X7104329Y4822393D01*
X7123582Y4873345D01*
X7131507Y4893564D01*
X7137400Y4911344D01*
X7183120Y5028184D01*
X7183577Y5030216D01*
X7187692Y5040833D01*
X7191502Y5052314D01*
X7192721Y5058359D01*
X7192264Y5063540D01*
X7190181Y5067909D01*
X7186422Y5071364D01*
X7183831Y5072735D01*
X7180884Y5073802D01*
X7177633Y5074513D01*
X7173975Y5074920D01*
X7158481Y5075174D01*
X7144105Y5074970D01*
X7131050Y5074412D01*
X7125157Y5073396D01*
X7119924Y5071364D01*
X7115403Y5068316D01*
X7111492Y5064252D01*
X7109104Y5061153D01*
X7107072Y5057698D01*
X7105294Y5053939D01*
X7100011Y5037328D01*
X7090867Y5010048D01*
X7087463Y5000752D01*
X7084618Y4993792D01*
X7083094Y4989372D01*
X7081266Y4983022D01*
X7074865Y4966157D01*
X7067143Y4941468D01*
X7061504Y4926888D01*
X7058863Y4918252D01*
X7054951Y4907178D01*
X7048957Y4889144D01*
X7045401Y4879848D01*
X7043420Y4875276D01*
X7040372Y4862322D01*
X7035596Y4851196D01*
X7031228Y4839919D01*
X7027214Y4828438D01*
X7019950Y4805070D01*
X7011924Y4781854D01*
X7004202Y4761280D01*
X7001002Y4752086D01*
X6992772Y4723892D01*
X6989775Y4714748D01*
X6986320Y4705858D01*
X6978142Y4687824D01*
X6976109Y4683760D01*
X6973620Y4680305D01*
X6970623Y4678222D01*
X6967270Y4677613D01*
X6963409Y4678426D01*
X6960209Y4679696D01*
X6957517Y4681677D01*
X6955281Y4684369D01*
X6953503Y4687824D01*
X6947408Y4702302D01*
X6937502Y4730750D01*
X6932218Y4745126D01*
X6926580Y4759198D01*
X6925665Y4760772D01*
X6925056Y4762347D01*
X6924040Y4769459D01*
X6914743Y4792929D01*
X6907377Y4812944D01*
X6893610Y4853787D01*
X6886295Y4873802D01*
X6874002Y4905248D01*
X6872071Y4911242D01*
X6868820Y4923180D01*
X6866940Y4929073D01*
X6857746Y4952339D01*
X6849313Y4977180D01*
X6839712Y5002276D01*
X6831279Y5028234D01*
X6826503Y5041392D01*
X6818884Y5058410D01*
X6816953Y5062169D01*
X6814362Y5065572D01*
X6811213Y5068671D01*
X6807453Y5071364D01*
X6797294Y5074869D01*
G37*
G36*
X10432542Y5075174D02*
G01*
X10430510Y5074716D01*
X10426446Y5074920D01*
X10424414Y5074412D01*
X10419384Y5072634D01*
X10415219Y5070348D01*
X10411866Y5067554D01*
X10409428Y5064252D01*
X10407650Y5061102D01*
X10406380Y5057597D01*
X10405618Y5053634D01*
X10405364Y5049266D01*
X10405313Y4738166D01*
X10404906Y4727651D01*
X10405364Y4723384D01*
X10405364Y4713224D01*
X10406126Y4710125D01*
X10406634Y4703673D01*
X10407396Y4701286D01*
X10408818Y4694631D01*
X10409021Y4691634D01*
X10408818Y4686046D01*
X10409021Y4683201D01*
X10409580Y4680305D01*
X10410444Y4677410D01*
X10414508Y4657852D01*
X10417048Y4648403D01*
X10420604Y4639310D01*
X10426496Y4626813D01*
X10433151Y4615230D01*
X10440720Y4604613D01*
X10449052Y4594860D01*
X10458348Y4586071D01*
X10468660Y4578197D01*
X10480040Y4571339D01*
X10496499Y4563465D01*
X10504271Y4560417D01*
X10523474Y4555236D01*
X10525912Y4554372D01*
X10530230Y4553610D01*
X10533786Y4553813D01*
X10535615Y4553610D01*
X10539476Y4552188D01*
X10544860Y4551629D01*
X10550906Y4551426D01*
X10557154Y4550918D01*
X10559948Y4550308D01*
X10562590Y4549394D01*
X10572496Y4549394D01*
X10576560Y4548632D01*
X10580928Y4548378D01*
X10585602Y4548632D01*
X10590530Y4549394D01*
X10593070Y4550206D01*
X10595660Y4550664D01*
X10598302Y4550714D01*
X10606379Y4549902D01*
X10611612Y4550410D01*
X10623397Y4552899D01*
X10640669Y4555693D01*
X10646359Y4557115D01*
X10651998Y4558995D01*
X10657586Y4561332D01*
X10671200Y4567580D01*
X10684002Y4574286D01*
X10696041Y4581550D01*
X10707370Y4589272D01*
X10710976Y4592066D01*
X10714736Y4595418D01*
X10726572Y4608068D01*
X10730534Y4611420D01*
X10734548Y4613808D01*
X10738612Y4615180D01*
X10741355Y4615383D01*
X10743742Y4614976D01*
X10745825Y4614011D01*
X10747502Y4612386D01*
X10748873Y4610201D01*
X10750042Y4607661D01*
X10750956Y4604867D01*
X10752023Y4598517D01*
X10753394Y4585004D01*
X10754614Y4577334D01*
X10756595Y4573117D01*
X10758728Y4569510D01*
X10761065Y4566615D01*
X10763504Y4564380D01*
X10765790Y4562957D01*
X10768634Y4561840D01*
X10772038Y4560925D01*
X10775950Y4560316D01*
X10784789Y4559706D01*
X10793984Y4559808D01*
X10803077Y4560570D01*
X10811510Y4561840D01*
X10815218Y4562703D01*
X10818418Y4563770D01*
X10821162Y4564989D01*
X10823448Y4566412D01*
X10826597Y4569206D01*
X10828934Y4572711D01*
X10830407Y4576927D01*
X10831068Y4581906D01*
X10831576Y4604258D01*
X10831576Y5050790D01*
X10831271Y5055209D01*
X10830306Y5059121D01*
X10828731Y5062474D01*
X10823702Y5068874D01*
X10820349Y5071618D01*
X10816437Y5073446D01*
X10812018Y5074412D01*
X10801807Y5074970D01*
X10775442Y5075174D01*
X10761980Y5071872D01*
X10759287Y5070906D01*
X10756849Y5069484D01*
X10754614Y5067604D01*
X10752582Y5065268D01*
X10750397Y5060950D01*
X10748873Y5055920D01*
X10748111Y5050180D01*
X10748010Y5043678D01*
X10748518Y5018278D01*
X10748568Y4829708D01*
X10749838Y4809744D01*
X10749788Y4804968D01*
X10749330Y4800498D01*
X10748518Y4796282D01*
X10748518Y4775200D01*
X10747095Y4770577D01*
X10746892Y4768392D01*
X10747146Y4764227D01*
X10746892Y4759807D01*
X10743996Y4744415D01*
X10742828Y4736338D01*
X10741914Y4732324D01*
X10735513Y4713071D01*
X10731144Y4702505D01*
X10726318Y4692700D01*
X10720984Y4683658D01*
X10715193Y4675327D01*
X10708894Y4667758D01*
X10702086Y4660849D01*
X10694517Y4654346D01*
X10686186Y4648200D01*
X10677042Y4642459D01*
X10667187Y4637125D01*
X10656570Y4632198D01*
X10646308Y4628591D01*
X10634522Y4625644D01*
X10621264Y4623409D01*
X10606532Y4621784D01*
X10591596Y4621225D01*
X10577779Y4622190D01*
X10565028Y4624527D01*
X10553446Y4628388D01*
X10542879Y4633315D01*
X10533227Y4639106D01*
X10524439Y4645710D01*
X10516463Y4653127D01*
X10509453Y4661458D01*
X10503255Y4670602D01*
X10497921Y4680559D01*
X10493502Y4691380D01*
X10491266Y4700270D01*
X10489692Y4709972D01*
X10488726Y4720488D01*
X10488422Y4731766D01*
X10488371Y5029352D01*
X10487914Y5047234D01*
X10487406Y5052974D01*
X10486339Y5058206D01*
X10484713Y5062982D01*
X10482580Y5067300D01*
X10478973Y5070754D01*
X10474248Y5073192D01*
X10468457Y5074666D01*
X10461498Y5075174D01*
G37*
G36*
X6794703Y4196892D02*
G01*
X6786422Y4195826D01*
X6774738Y4194860D01*
X6759752Y4192320D01*
X6752488Y4190237D01*
X6741363Y4187698D01*
X6734403Y4185412D01*
X6715252Y4176725D01*
X6705346Y4171797D01*
X6700570Y4169054D01*
X6687362Y4160062D01*
X6678726Y4153103D01*
X6668820Y4144365D01*
X6665061Y4140454D01*
X6659422Y4133189D01*
X6654342Y4128617D01*
X6643370Y4112412D01*
X6632295Y4094226D01*
X6628587Y4086860D01*
X6618884Y4062780D01*
X6616242Y4053738D01*
X6614261Y4044238D01*
X6609842Y4027170D01*
X6609232Y4023106D01*
X6609080Y4019143D01*
X6608572Y4015333D01*
X6607556Y4011117D01*
X6606794Y4006138D01*
X6605574Y3993743D01*
X6605574Y3988409D01*
X6605320Y3986936D01*
X6605828Y3983126D01*
X6605574Y3981246D01*
X6605016Y3979468D01*
X6604609Y3977233D01*
X6604304Y3971086D01*
X6604609Y3964838D01*
X6605016Y3962501D01*
X6605574Y3960723D01*
X6605574Y3949496D01*
X6606590Y3943858D01*
X6607606Y3932174D01*
X6608622Y3926636D01*
X6608927Y3923741D01*
X6609029Y3918610D01*
X6609892Y3915765D01*
X6614922Y3891940D01*
X6617004Y3884523D01*
X6621830Y3871264D01*
X6627215Y3858615D01*
X6633108Y3846525D01*
X6639559Y3835044D01*
X6646570Y3824173D01*
X6654088Y3813860D01*
X6662369Y3804259D01*
X6671411Y3795420D01*
X6681216Y3787343D01*
X6691782Y3780028D01*
X6703161Y3773474D01*
X6720636Y3765092D01*
X6726224Y3762705D01*
X6732066Y3760520D01*
X6743090Y3757015D01*
X6763867Y3752850D01*
X6772554Y3751783D01*
X6777278Y3750868D01*
X6783120Y3750868D01*
X6786118Y3750411D01*
X6788962Y3750360D01*
X6791604Y3750564D01*
X6797497Y3749700D01*
X6802678Y3749344D01*
X6807911Y3749294D01*
X6814921Y3750005D01*
X6822236Y3750310D01*
X6828129Y3751224D01*
X6833108Y3751224D01*
X6835952Y3751935D01*
X6853580Y3754678D01*
X6856984Y3755390D01*
X6876592Y3761536D01*
X6882790Y3763670D01*
X6889292Y3766362D01*
X6898487Y3770884D01*
X6907326Y3775913D01*
X6915759Y3781551D01*
X6923836Y3787749D01*
X6931507Y3794353D01*
X6938518Y3801313D01*
X6944817Y3808577D01*
X6950506Y3816146D01*
X6955129Y3823360D01*
X6968032Y3845610D01*
X6973163Y3857294D01*
X6976922Y3869486D01*
X6984288Y3899001D01*
X6984746Y3902100D01*
X6984898Y3905199D01*
X6984796Y3908399D01*
X6984288Y3911295D01*
X6983323Y3913733D01*
X6981901Y3915613D01*
X6979310Y3917594D01*
X6977634Y3918356D01*
X6972858Y3919270D01*
X6968540Y3919270D01*
X6966051Y3919880D01*
X6960158Y3920083D01*
X6949744Y3919880D01*
X6942886Y3919270D01*
X6939788Y3918762D01*
X6937197Y3917696D01*
X6934962Y3916121D01*
X6933234Y3913936D01*
X6931863Y3911498D01*
X6930745Y3908958D01*
X6929932Y3906316D01*
X6927138Y3892346D01*
X6922871Y3878478D01*
X6918248Y3866743D01*
X6913016Y3856126D01*
X6906869Y3846322D01*
X6899909Y3837279D01*
X6892086Y3828999D01*
X6883400Y3821531D01*
X6873849Y3814826D01*
X6863486Y3808882D01*
X6849516Y3802583D01*
X6843928Y3800906D01*
X6829348Y3798112D01*
X6827012Y3797452D01*
X6822186Y3797452D01*
X6819696Y3797096D01*
X6815632Y3797096D01*
X6811009Y3796233D01*
X6804202Y3796080D01*
X6797548Y3796487D01*
X6788912Y3797808D01*
X6781190Y3798011D01*
X6767423Y3801618D01*
X6758228Y3804259D01*
X6749643Y3807002D01*
X6741210Y3810812D01*
X6728663Y3818178D01*
X6717334Y3826459D01*
X6707327Y3835704D01*
X6698538Y3845915D01*
X6690817Y3857091D01*
X6683806Y3869385D01*
X6677558Y3882745D01*
X6672122Y3897223D01*
X6670040Y3904437D01*
X6665010Y3927144D01*
X6664452Y3928719D01*
X6663944Y3932021D01*
X6664147Y3935577D01*
X6663740Y3939133D01*
X6662674Y3943045D01*
X6662166Y3947363D01*
X6662369Y3951579D01*
X6661962Y3955745D01*
X6661454Y3957878D01*
X6661454Y3963720D01*
X6660997Y3967530D01*
X6661403Y3976319D01*
X6661708Y3994759D01*
X6662216Y4001515D01*
X6663588Y4010406D01*
X6663944Y4014419D01*
X6665264Y4020261D01*
X6665823Y4027932D01*
X6673850Y4055160D01*
X6677406Y4063898D01*
X6685432Y4080459D01*
X6692290Y4091787D01*
X6700012Y4102201D01*
X6708648Y4111701D01*
X6718147Y4120235D01*
X6728510Y4127855D01*
X6739737Y4134561D01*
X6751878Y4140301D01*
X6757416Y4142333D01*
X6762800Y4143857D01*
X6774230Y4146143D01*
X6780834Y4147718D01*
X6788962Y4148886D01*
X6797802Y4149496D01*
X6806996Y4149699D01*
X6815937Y4149496D01*
X6824522Y4148886D01*
X6832447Y4147718D01*
X6839508Y4146143D01*
X6857288Y4141317D01*
X6861505Y4139996D01*
X6865620Y4138371D01*
X6869531Y4136440D01*
X6873290Y4134154D01*
X6885686Y4125468D01*
X6896404Y4116120D01*
X6905752Y4105605D01*
X6915962Y4089908D01*
X6917740Y4086453D01*
X6919264Y4082796D01*
X6921906Y4075226D01*
X6925208Y4068267D01*
X6927138Y4065117D01*
X6928916Y4063034D01*
X6931152Y4061409D01*
X6933844Y4060240D01*
X6937044Y4059478D01*
X6944258Y4058767D01*
X6952284Y4058462D01*
X6958838Y4058513D01*
X6961936Y4059275D01*
X6968032Y4059275D01*
X6974890Y4061307D01*
X6976414Y4061968D01*
X6977684Y4062933D01*
X6978700Y4064254D01*
X6980174Y4067962D01*
X6980478Y4070197D01*
X6980428Y4072534D01*
X6979361Y4077411D01*
X6975805Y4088993D01*
X6971995Y4099407D01*
X6968032Y4108348D01*
X6963054Y4117492D01*
X6960158Y4122267D01*
X6952284Y4133596D01*
X6943445Y4144111D01*
X6933590Y4153712D01*
X6922770Y4162551D01*
X6910984Y4170476D01*
X6898182Y4177588D01*
X6887921Y4182313D01*
X6877050Y4186326D01*
X6865620Y4189679D01*
X6853529Y4192422D01*
X6840880Y4194454D01*
X6827672Y4195876D01*
X6813803Y4196588D01*
X6799376Y4196638D01*
X6797954Y4196283D01*
G37*
G36*
X8104428Y4186986D02*
G01*
X8103108Y4186682D01*
X8100263Y4186834D01*
X8095742Y4185107D01*
X8092998Y4183379D01*
X8090916Y4181398D01*
X8089442Y4179112D01*
X8088680Y4177233D01*
X8087766Y4172813D01*
X8087664Y4155541D01*
X8087918Y4141825D01*
X8088325Y4137456D01*
X8089290Y4133850D01*
X8090865Y4131005D01*
X8092998Y4128820D01*
X8095234Y4127500D01*
X8097672Y4126534D01*
X8100314Y4125976D01*
X8124342Y4125874D01*
X8127542Y4126534D01*
X8129066Y4127093D01*
X8132419Y4128973D01*
X8134908Y4131716D01*
X8136483Y4135221D01*
X8137194Y4139488D01*
X8137347Y4172965D01*
X8136432Y4177284D01*
X8135670Y4179112D01*
X8133740Y4182059D01*
X8131098Y4184294D01*
X8127695Y4185767D01*
X8123478Y4186478D01*
X8114284Y4186885D01*
G37*
G36*
X9030258Y4186986D02*
G01*
X9028988Y4186682D01*
X9026652Y4186834D01*
X9022384Y4185158D01*
X9019844Y4183735D01*
X9017812Y4182110D01*
X9016288Y4180433D01*
X9015069Y4177792D01*
X9014256Y4174744D01*
X9013799Y4171289D01*
X9014002Y4156100D01*
X9014002Y4005173D01*
X9069374Y4005173D01*
X9069781Y4015536D01*
X9069832Y4101388D01*
X9069425Y4120083D01*
X9069832Y4124299D01*
X9070543Y4127957D01*
X9071660Y4131157D01*
X9073134Y4133900D01*
X9075216Y4136136D01*
X9077960Y4137863D01*
X9082176Y4139234D01*
X9085224Y4139539D01*
X9087154Y4140301D01*
X9164624Y4140301D01*
X9182811Y4139946D01*
X9200184Y4138980D01*
X9216440Y4136694D01*
X9230664Y4132427D01*
X9244787Y4124960D01*
X9256064Y4115917D01*
X9265005Y4104284D01*
X9272066Y4089196D01*
X9273844Y4081475D01*
X9275622Y4071467D01*
X9276283Y4066133D01*
X9276384Y4061104D01*
X9276029Y4056329D01*
X9275114Y4051909D01*
X9274911Y4047286D01*
X9274352Y4044238D01*
X9271965Y4035044D01*
X9269272Y4026712D01*
X9266021Y4019194D01*
X9264091Y4015435D01*
X9261906Y4011777D01*
X9252356Y4001414D01*
X9241078Y3994251D01*
X9227870Y3988815D01*
X9212630Y3984294D01*
X9204858Y3982720D01*
X9200540Y3982262D01*
X9181693Y3981805D01*
X9096298Y3981754D01*
X9088831Y3982059D01*
X9082074Y3982770D01*
X9079128Y3983431D01*
X9076537Y3984599D01*
X9074404Y3986225D01*
X9072676Y3988409D01*
X9071152Y3991711D01*
X9070086Y3995623D01*
X9069476Y4000093D01*
X9069374Y4005173D01*
X9014002Y4005173D01*
X9014002Y3776268D01*
X9014155Y3773271D01*
X9014561Y3770629D01*
X9015272Y3768344D01*
X9016288Y3766362D01*
X9018066Y3764026D01*
X9020403Y3762197D01*
X9023299Y3760978D01*
X9026702Y3760317D01*
X9034272Y3759911D01*
X9053626Y3759809D01*
X9061754Y3761841D01*
X9063329Y3762501D01*
X9064802Y3763467D01*
X9067342Y3766362D01*
X9068663Y3769207D01*
X9069578Y3772915D01*
X9070035Y3777487D01*
X9069832Y3896156D01*
X9069374Y3913936D01*
X9069679Y3919829D01*
X9070848Y3924706D01*
X9072829Y3928567D01*
X9075724Y3931462D01*
X9078823Y3933240D01*
X9082532Y3934460D01*
X9086799Y3935171D01*
X9091726Y3935323D01*
X9111284Y3935018D01*
X9201708Y3935018D01*
X9204706Y3935323D01*
X9210243Y3934663D01*
X9215069Y3935374D01*
X9219285Y3935222D01*
X9226346Y3936593D01*
X9235998Y3937609D01*
X9240824Y3938625D01*
X9263176Y3944721D01*
X9267190Y3946347D01*
X9270898Y3948277D01*
X9274352Y3950512D01*
X9287916Y3958488D01*
X9289745Y3960164D01*
X9291523Y3962196D01*
X9293555Y3963822D01*
X9295739Y3965092D01*
X9298025Y3966870D01*
X9300565Y3969207D01*
X9302597Y3971645D01*
X9303308Y3972915D01*
X9310674Y3982974D01*
X9317532Y3994454D01*
X9318548Y3995623D01*
X9319564Y3998620D01*
X9320580Y4000296D01*
X9323882Y4008678D01*
X9326676Y4017873D01*
X9328454Y4025188D01*
X9329166Y4029151D01*
X9330232Y4032859D01*
X9330994Y4036822D01*
X9330994Y4038803D01*
X9330588Y4042511D01*
X9330994Y4046321D01*
X9331960Y4050741D01*
X9332468Y4056938D01*
X9332468Y4064609D01*
X9331960Y4070959D01*
X9330994Y4075582D01*
X9330588Y4079544D01*
X9330994Y4083151D01*
X9330740Y4087114D01*
X9326981Y4100626D01*
X9325406Y4107738D01*
X9323273Y4114596D01*
X9321850Y4117949D01*
X9316008Y4129938D01*
X9309455Y4140504D01*
X9302191Y4149750D01*
X9294164Y4157573D01*
X9285122Y4164431D01*
X9274860Y4170629D01*
X9263329Y4176115D01*
X9250476Y4180941D01*
X9241434Y4183379D01*
X9231884Y4185158D01*
X9221774Y4186275D01*
X9211106Y4186783D01*
X9189008Y4186936D01*
G37*
G36*
X7930438Y4162399D02*
G01*
X7924342Y4161891D01*
X7921294Y4160215D01*
X7918805Y4158386D01*
X7916875Y4156303D01*
X7915452Y4154017D01*
X7914487Y4150055D01*
X7914182Y4145330D01*
X7914081Y4085386D01*
X7913471Y4080967D01*
X7912912Y4079036D01*
X7911338Y4076446D01*
X7909407Y4074160D01*
X7907172Y4072229D01*
X7904530Y4070654D01*
X7900771Y4069638D01*
X7896606Y4069079D01*
X7891983Y4069029D01*
X7881924Y4069791D01*
X7877352Y4069740D01*
X7873288Y4069181D01*
X7869732Y4068165D01*
X7867091Y4066438D01*
X7865008Y4064457D01*
X7863535Y4062120D01*
X7862620Y4059478D01*
X7861655Y4053179D01*
X7861401Y4042410D01*
X7861604Y4039412D01*
X7862265Y4036568D01*
X7864246Y4031538D01*
X7865719Y4029557D01*
X7867650Y4028033D01*
X7869986Y4027017D01*
X7875879Y4026052D01*
X7882940Y4025696D01*
X7892592Y4025696D01*
X7894929Y4024884D01*
X7897418Y4024985D01*
X7899755Y4025341D01*
X7902244Y4024985D01*
X7905445Y4023715D01*
X7907985Y4022344D01*
X7909763Y4020820D01*
X7910880Y4019143D01*
X7912455Y4014368D01*
X7914182Y4007662D01*
X7914284Y3840073D01*
X7914894Y3820414D01*
X7915452Y3811117D01*
X7918500Y3794404D01*
X7925104Y3780891D01*
X7928203Y3776624D01*
X7931658Y3773119D01*
X7935417Y3770274D01*
X7939582Y3768191D01*
X7949234Y3764737D01*
X7960410Y3761536D01*
X7965998Y3761333D01*
X7971840Y3760317D01*
X7978952Y3760317D01*
X7982102Y3759962D01*
X7989163Y3760215D01*
X8006537Y3760012D01*
X8012023Y3760520D01*
X8014512Y3761028D01*
X8017560Y3762095D01*
X8020050Y3763416D01*
X8021980Y3764991D01*
X8024215Y3768293D01*
X8024875Y3769918D01*
X8025688Y3774033D01*
X8026196Y3778453D01*
X8026196Y3783177D01*
X8024926Y3792575D01*
X8023910Y3796436D01*
X8022894Y3798925D01*
X8021472Y3800500D01*
X8019745Y3801770D01*
X8017662Y3802684D01*
X8012684Y3803650D01*
X8007096Y3804158D01*
X7996478Y3804259D01*
X7994599Y3804564D01*
X7990433Y3804412D01*
X7982458Y3806139D01*
X7977174Y3807815D01*
X7974888Y3808882D01*
X7972806Y3810304D01*
X7970926Y3812184D01*
X7969300Y3814368D01*
X7966964Y3818737D01*
X7965338Y3823970D01*
X7964424Y3830065D01*
X7964220Y3837025D01*
X7964474Y3864660D01*
X7964424Y3989730D01*
X7964170Y4002024D01*
X7964474Y4007967D01*
X7965490Y4013200D01*
X7967014Y4017873D01*
X7968081Y4019753D01*
X7969402Y4021328D01*
X7971129Y4022648D01*
X7973110Y4023715D01*
X7975549Y4024579D01*
X7981086Y4025595D01*
X7987639Y4025696D01*
X8001406Y4025137D01*
X8011210Y4025188D01*
X8014106Y4025595D01*
X8016748Y4026306D01*
X8019084Y4027271D01*
X8021116Y4028541D01*
X8022691Y4030218D01*
X8023910Y4032250D01*
X8024723Y4034637D01*
X8025180Y4037380D01*
X8025688Y4049623D01*
X8025638Y4057091D01*
X8025130Y4059732D01*
X8024672Y4061002D01*
X8023555Y4062780D01*
X8021929Y4064609D01*
X8017306Y4068165D01*
X8014919Y4068927D01*
X8011820Y4069435D01*
X8003590Y4069638D01*
X7980324Y4069435D01*
X7975904Y4069943D01*
X7972094Y4071569D01*
X7969046Y4073906D01*
X7966760Y4077004D01*
X7964678Y4082694D01*
X7964170Y4087012D01*
X7964424Y4094479D01*
X7964474Y4137456D01*
X7964322Y4143959D01*
X7963916Y4150156D01*
X7963255Y4152798D01*
X7962290Y4155084D01*
X7960918Y4157065D01*
X7958785Y4159148D01*
X7956042Y4160723D01*
X7952587Y4161688D01*
X7948472Y4162094D01*
G37*
G36*
X7690408Y4076496D02*
G01*
X7689494Y4076090D01*
X7686243Y4075734D01*
X7677353Y4075734D01*
X7666177Y4073906D01*
X7653832Y4072280D01*
X7650784Y4071670D01*
X7638389Y4067860D01*
X7627061Y4063441D01*
X7616799Y4058462D01*
X7607604Y4052925D01*
X7599222Y4046474D01*
X7591653Y4038854D01*
X7584897Y4030065D01*
X7578902Y4020159D01*
X7576108Y4013454D01*
X7571638Y3999585D01*
X7569301Y3989578D01*
X7569149Y3987292D01*
X7569301Y3985107D01*
X7570470Y3981043D01*
X7571282Y3979367D01*
X7572248Y3977995D01*
X7573314Y3976928D01*
X7576616Y3975404D01*
X7581442Y3974388D01*
X7587284Y3973626D01*
X7593126Y3973423D01*
X7599070Y3973677D01*
X7604810Y3974388D01*
X7609738Y3975404D01*
X7611567Y3976115D01*
X7612938Y3976928D01*
X7614920Y3978605D01*
X7616545Y3980586D01*
X7617866Y3982821D01*
X7621219Y3993134D01*
X7623556Y3998772D01*
X7627010Y4004970D01*
X7630922Y4010609D01*
X7635240Y4015181D01*
X7637576Y4017060D01*
X7642453Y4020210D01*
X7647381Y4023004D01*
X7652359Y4025442D01*
X7657388Y4027525D01*
X7665313Y4029557D01*
X7674914Y4031030D01*
X7685227Y4031996D01*
X7695742Y4032351D01*
X7706410Y4031996D01*
X7716570Y4031030D01*
X7721346Y4030319D01*
X7725765Y4029354D01*
X7729880Y4028135D01*
X7739583Y4024122D01*
X7744815Y4021023D01*
X7749336Y4017518D01*
X7753146Y4013504D01*
X7759192Y4003700D01*
X7763560Y3990949D01*
X7764525Y3986479D01*
X7764830Y3982212D01*
X7764525Y3978198D01*
X7763560Y3974388D01*
X7760970Y3967479D01*
X7759395Y3964533D01*
X7757718Y3961993D01*
X7748524Y3953256D01*
X7736636Y3948480D01*
X7722971Y3945534D01*
X7706055Y3941572D01*
X7701483Y3940810D01*
X7697266Y3940454D01*
X7688580Y3938676D01*
X7684262Y3938168D01*
X7680350Y3938015D01*
X7676286Y3937355D01*
X7674152Y3936796D01*
X7651699Y3933088D01*
X7643063Y3931310D01*
X7638846Y3930243D01*
X7627924Y3926789D01*
X7617459Y3923182D01*
X7607452Y3919321D01*
X7597952Y3915257D01*
X7589164Y3910482D01*
X7581290Y3904538D01*
X7574432Y3897528D01*
X7568488Y3889349D01*
X7565237Y3883660D01*
X7560157Y3870807D01*
X7557820Y3864152D01*
X7556042Y3850944D01*
X7556042Y3844798D01*
X7609331Y3844798D01*
X7609738Y3850589D01*
X7610602Y3855974D01*
X7611922Y3860901D01*
X7613548Y3865422D01*
X7615529Y3869588D01*
X7617968Y3873398D01*
X7620812Y3876852D01*
X7624013Y3880053D01*
X7627467Y3882898D01*
X7631226Y3885488D01*
X7639558Y3890010D01*
X7648600Y3893820D01*
X7655559Y3896004D01*
X7675168Y3900627D01*
X7679944Y3901440D01*
X7684922Y3901998D01*
X7695285Y3902557D01*
X7700264Y3903116D01*
X7705039Y3903929D01*
X7709712Y3905046D01*
X7718094Y3905554D01*
X7740700Y3910380D01*
X7743393Y3911346D01*
X7748727Y3911955D01*
X7750352Y3912717D01*
X7755737Y3912412D01*
X7758734Y3911701D01*
X7760665Y3910025D01*
X7762087Y3908044D01*
X7763052Y3905808D01*
X7763916Y3900424D01*
X7764272Y3894328D01*
X7764018Y3873601D01*
X7763459Y3862679D01*
X7762748Y3857701D01*
X7761579Y3853027D01*
X7760004Y3848709D01*
X7752029Y3833012D01*
X7741208Y3821023D01*
X7727543Y3811625D01*
X7709306Y3802786D01*
X7704886Y3801516D01*
X7700416Y3800906D01*
X7695844Y3799992D01*
X7691678Y3798874D01*
X7687970Y3798366D01*
X7684312Y3798519D01*
X7680756Y3798163D01*
X7676794Y3797096D01*
X7671612Y3796588D01*
X7668564Y3796588D01*
X7662722Y3797249D01*
X7655052Y3798722D01*
X7649006Y3799027D01*
X7645958Y3799433D01*
X7637322Y3802786D01*
X7629194Y3806799D01*
X7625435Y3809187D01*
X7622082Y3811828D01*
X7619085Y3814775D01*
X7616494Y3817975D01*
X7613853Y3822446D01*
X7611414Y3827373D01*
X7609890Y3832707D01*
X7609382Y3838549D01*
X7609331Y3844798D01*
X7556042Y3844798D01*
X7556042Y3838549D01*
X7557363Y3821125D01*
X7561376Y3806494D01*
X7569504Y3790492D01*
X7579664Y3778554D01*
X7592568Y3769258D01*
X7608874Y3761028D01*
X7613142Y3759454D01*
X7629144Y3755898D01*
X7632446Y3756050D01*
X7634528Y3755694D01*
X7637170Y3754780D01*
X7642961Y3754272D01*
X7645958Y3753662D01*
X7651292Y3753662D01*
X7657490Y3753154D01*
X7663992Y3753662D01*
X7669631Y3753713D01*
X7676946Y3755034D01*
X7683703Y3755948D01*
X7690510Y3756558D01*
X7696962Y3757726D01*
X7700060Y3758488D01*
X7709916Y3761841D01*
X7723581Y3767582D01*
X7731963Y3771900D01*
X7738668Y3776116D01*
X7749997Y3784854D01*
X7753096Y3786682D01*
X7756245Y3788156D01*
X7759496Y3789273D01*
X7761579Y3789324D01*
X7762494Y3789019D01*
X7765440Y3786835D01*
X7767777Y3784295D01*
X7769352Y3782060D01*
X7774533Y3771544D01*
X7777276Y3766870D01*
X7780172Y3763721D01*
X7784134Y3760876D01*
X7789062Y3758285D01*
X7795056Y3755999D01*
X7808061Y3753307D01*
X7821218Y3754475D01*
X7824724Y3755390D01*
X7831328Y3755948D01*
X7834426Y3756710D01*
X7837322Y3758488D01*
X7839913Y3760622D01*
X7842148Y3763162D01*
X7844078Y3766159D01*
X7845501Y3769512D01*
X7846314Y3773220D01*
X7846415Y3777386D01*
X7845856Y3781907D01*
X7845298Y3784600D01*
X7844840Y3788562D01*
X7844078Y3790543D01*
X7842656Y3792575D01*
X7840980Y3794201D01*
X7838998Y3795369D01*
X7829194Y3798366D01*
X7824266Y3800449D01*
X7822184Y3801821D01*
X7820304Y3803497D01*
X7818678Y3805478D01*
X7817408Y3808018D01*
X7816392Y3810914D01*
X7815630Y3814216D01*
X7815122Y3817975D01*
X7814614Y3834180D01*
X7814614Y3966768D01*
X7814360Y3983888D01*
X7813598Y4000093D01*
X7811668Y4015028D01*
X7807502Y4028033D01*
X7802778Y4037076D01*
X7796987Y4045102D01*
X7790180Y4052163D01*
X7782306Y4058158D01*
X7773466Y4063136D01*
X7763560Y4067149D01*
X7752842Y4070197D01*
X7741564Y4072686D01*
X7729626Y4074566D01*
X7717180Y4075836D01*
X7704074Y4076496D01*
G37*
G36*
X7194092Y4075988D02*
G01*
X7180376Y4074210D01*
X7167676Y4070959D01*
X7161987Y4069029D01*
X7152233Y4064355D01*
X7147814Y4061917D01*
X7143191Y4059021D01*
X7138466Y4055668D01*
X7133894Y4052062D01*
X7129881Y4048506D01*
X7126427Y4045051D01*
X7123480Y4041749D01*
X7119924Y4038193D01*
X7110374Y4026458D01*
X7107885Y4024629D01*
X7105040Y4023563D01*
X7101890Y4023207D01*
X7099401Y4025798D01*
X7097725Y4029252D01*
X7096912Y4031945D01*
X7096455Y4034840D01*
X7096302Y4049877D01*
X7095947Y4055516D01*
X7094778Y4060799D01*
X7093915Y4063085D01*
X7092645Y4065015D01*
X7090867Y4066540D01*
X7088682Y4067657D01*
X7085075Y4068724D01*
X7080300Y4069435D01*
X7074763Y4069740D01*
X7069378Y4069638D01*
X7064248Y4069130D01*
X7057339Y4067556D01*
X7055612Y4066743D01*
X7054189Y4065778D01*
X7053122Y4064609D01*
X7051751Y4062425D01*
X7050786Y4060088D01*
X7050125Y4057497D01*
X7049719Y4051808D01*
X7049566Y4045712D01*
X7049617Y3782009D01*
X7049820Y3775760D01*
X7050125Y3772712D01*
X7050786Y3769969D01*
X7051751Y3767378D01*
X7053834Y3764279D01*
X7055866Y3763010D01*
X7062774Y3760317D01*
X7080605Y3760470D01*
X7087158Y3761028D01*
X7090105Y3761536D01*
X7092645Y3762501D01*
X7094677Y3763975D01*
X7097623Y3767734D01*
X7098538Y3769766D01*
X7098995Y3771950D01*
X7099147Y3782517D01*
X7100062Y3795877D01*
X7100011Y3895648D01*
X7099604Y3904843D01*
X7099604Y3909263D01*
X7099858Y3913428D01*
X7100366Y3917391D01*
X7101433Y3922623D01*
X7101535Y3925620D01*
X7101331Y3928668D01*
X7101586Y3931716D01*
X7105396Y3950665D01*
X7107326Y3957370D01*
X7108494Y3960723D01*
X7116927Y3977182D01*
X7127036Y3991660D01*
X7139431Y4003751D01*
X7155230Y4012996D01*
X7162038Y4015740D01*
X7169200Y4017873D01*
X7191806Y4022801D01*
X7201509Y4023868D01*
X7204252Y4024833D01*
X7206589Y4026408D01*
X7208570Y4028541D01*
X7209891Y4030522D01*
X7210856Y4032707D01*
X7211415Y4035094D01*
X7211618Y4037685D01*
X7211517Y4055313D01*
X7211161Y4060698D01*
X7210602Y4065320D01*
X7209840Y4069130D01*
X7208215Y4072178D01*
X7205014Y4074312D01*
X7200341Y4075582D01*
G37*
G36*
X9860584Y4075988D02*
G01*
X9846868Y4074210D01*
X9834168Y4070959D01*
X9828276Y4069029D01*
X9818471Y4064355D01*
X9814052Y4061917D01*
X9809429Y4059021D01*
X9804704Y4055668D01*
X9800234Y4052062D01*
X9792766Y4045051D01*
X9786162Y4038193D01*
X9779050Y4029049D01*
X9776764Y4026458D01*
X9774174Y4024629D01*
X9771278Y4023563D01*
X9768128Y4023207D01*
X9766350Y4024985D01*
X9765080Y4026712D01*
X9764064Y4029252D01*
X9763353Y4031945D01*
X9762947Y4034840D01*
X9762794Y4049877D01*
X9762388Y4055516D01*
X9761270Y4060799D01*
X9760305Y4063085D01*
X9758934Y4065015D01*
X9757105Y4066540D01*
X9754920Y4067657D01*
X9751314Y4068724D01*
X9746538Y4069435D01*
X9741204Y4069740D01*
X9735870Y4069638D01*
X9730587Y4069130D01*
X9723831Y4067556D01*
X9722104Y4066743D01*
X9720681Y4065778D01*
X9719614Y4064609D01*
X9718243Y4062425D01*
X9717278Y4060088D01*
X9716617Y4057497D01*
X9716211Y4051808D01*
X9716058Y4045712D01*
X9716109Y3782009D01*
X9716312Y3775760D01*
X9716617Y3772712D01*
X9717278Y3769969D01*
X9718243Y3767378D01*
X9720326Y3764279D01*
X9722256Y3763010D01*
X9729266Y3760317D01*
X9746996Y3760470D01*
X9753396Y3761028D01*
X9756343Y3761536D01*
X9758934Y3762501D01*
X9761067Y3763975D01*
X9762794Y3765854D01*
X9764115Y3767734D01*
X9765030Y3769766D01*
X9765487Y3771950D01*
X9765538Y3782517D01*
X9766046Y3789019D01*
X9766300Y3795877D01*
X9766350Y3891279D01*
X9766096Y3909263D01*
X9766350Y3913428D01*
X9767824Y3922623D01*
X9767976Y3925620D01*
X9767824Y3930192D01*
X9768128Y3933291D01*
X9771888Y3950665D01*
X9774732Y3960723D01*
X9783318Y3977182D01*
X9793274Y3991660D01*
X9805771Y4003751D01*
X9821468Y4012996D01*
X9828326Y4015740D01*
X9835692Y4017873D01*
X9858298Y4022801D01*
X9868001Y4023868D01*
X9870744Y4024833D01*
X9873081Y4026408D01*
X9875062Y4028541D01*
X9876383Y4030522D01*
X9877348Y4032707D01*
X9877907Y4035094D01*
X9878110Y4037685D01*
X9877958Y4055313D01*
X9877602Y4060698D01*
X9876993Y4065320D01*
X9876078Y4069130D01*
X9874453Y4072178D01*
X9871303Y4074312D01*
X9866680Y4075582D01*
G37*
G36*
X10011714Y4075988D02*
G01*
X10011105Y4075480D01*
X10010190Y4075226D01*
X10004907Y4075734D01*
X9986060Y4072991D01*
X9974224Y4069842D01*
X9963200Y4066641D01*
X9957866Y4064812D01*
X9952786Y4062780D01*
X9947960Y4060545D01*
X9943388Y4057954D01*
X9932111Y4049522D01*
X9922052Y4039920D01*
X9913772Y4028897D01*
X9906863Y4014825D01*
X9904272Y4006443D01*
X9903307Y3999128D01*
X9902494Y3990441D01*
X9902393Y3985971D01*
X9902545Y3981704D01*
X9903002Y3977690D01*
X9906355Y3962857D01*
X9908590Y3956659D01*
X9914991Y3945026D01*
X9923576Y3935577D01*
X9933686Y3927601D01*
X9947097Y3919118D01*
X9952177Y3916730D01*
X9975951Y3908044D01*
X9986060Y3904945D01*
X9996525Y3902456D01*
X10018217Y3898646D01*
X10028834Y3896360D01*
X10039299Y3893667D01*
X10049560Y3890568D01*
X10052100Y3889400D01*
X10056164Y3888841D01*
X10072573Y3882745D01*
X10075672Y3881323D01*
X10085324Y3875532D01*
X10088981Y3872992D01*
X10092334Y3870299D01*
X10095280Y3867454D01*
X10097820Y3864305D01*
X10100056Y3860444D01*
X10101986Y3855821D01*
X10103916Y3849420D01*
X10104932Y3843121D01*
X10104932Y3841496D01*
X10104678Y3839972D01*
X10098532Y3822496D01*
X10089692Y3812133D01*
X10077754Y3805021D01*
X10062260Y3799433D01*
X10057384Y3798620D01*
X10043718Y3797147D01*
X10041686Y3797096D01*
X10036454Y3796182D01*
X10030002Y3795877D01*
X10023856Y3796182D01*
X10019080Y3797096D01*
X10015270Y3797096D01*
X10002824Y3798925D01*
X9992918Y3801770D01*
X9983520Y3804767D01*
X9979202Y3806393D01*
X9975088Y3808374D01*
X9971176Y3810609D01*
X9967518Y3813149D01*
X9958222Y3821937D01*
X9951262Y3833723D01*
X9948976Y3838701D01*
X9946284Y3846728D01*
X9945065Y3849065D01*
X9943490Y3851046D01*
X9941610Y3852773D01*
X9939020Y3853891D01*
X9929520Y3855669D01*
X9918750Y3856786D01*
X9913416Y3856786D01*
X9908641Y3856177D01*
X9905034Y3855262D01*
X9901377Y3852824D01*
X9898938Y3850436D01*
X9897922Y3846931D01*
X9897414Y3842359D01*
X9897364Y3839870D01*
X9897872Y3835552D01*
X9900005Y3828643D01*
X9903307Y3819194D01*
X9906914Y3810762D01*
X9911384Y3802735D01*
X9913924Y3798925D01*
X9925050Y3785768D01*
X9938054Y3775252D01*
X9952990Y3767074D01*
X9972700Y3759454D01*
X9977424Y3758184D01*
X9989108Y3755694D01*
X9993274Y3755542D01*
X9996728Y3754983D01*
X9998354Y3754424D01*
X10000081Y3754120D01*
X10008006Y3754069D01*
X10011714Y3753154D01*
X10018318Y3753154D01*
X10021925Y3752799D01*
X10026700Y3752646D01*
X10031577Y3752799D01*
X10035082Y3753154D01*
X10041178Y3753154D01*
X10047224Y3754120D01*
X10059212Y3754780D01*
X10065308Y3755694D01*
X10070693Y3757218D01*
X10081920Y3759454D01*
X10087406Y3761028D01*
X10105085Y3768293D01*
X10120934Y3776827D01*
X10134600Y3787698D01*
X10145572Y3801668D01*
X10148417Y3806850D01*
X10150906Y3812641D01*
X10153243Y3818839D01*
X10155224Y3825341D01*
X10156190Y3829456D01*
X10156748Y3837838D01*
X10157510Y3842054D01*
X10157460Y3853179D01*
X10157256Y3857802D01*
X10156748Y3862324D01*
X10155732Y3866743D01*
X10154666Y3873093D01*
X10153446Y3877868D01*
X10146639Y3890568D01*
X10138460Y3900728D01*
X10128605Y3909415D01*
X10117378Y3917035D01*
X10111282Y3920083D01*
X10093452Y3926789D01*
X10052862Y3938524D01*
X10045090Y3940301D01*
X10037267Y3941622D01*
X10029494Y3943502D01*
X10019588Y3946398D01*
X9995712Y3952392D01*
X9990175Y3954424D01*
X9984943Y3956862D01*
X9976205Y3962044D01*
X9967010Y3968343D01*
X9964572Y3970578D01*
X9962337Y3973474D01*
X9960254Y3977030D01*
X9957765Y3982872D01*
X9956749Y3986428D01*
X9955987Y3990543D01*
X9955885Y3992626D01*
X9956088Y3994708D01*
X9956596Y3996791D01*
X9961829Y4010202D01*
X9970312Y4019143D01*
X9981895Y4024934D01*
X9996220Y4029252D01*
X10003739Y4030218D01*
X10008158Y4031030D01*
X10011714Y4031030D01*
X10015778Y4031996D01*
X10020858Y4032351D01*
X10025735Y4031996D01*
X10029748Y4031030D01*
X10032796Y4030624D01*
X10035844Y4030827D01*
X10038842Y4030675D01*
X10058704Y4024985D01*
X10062464Y4023664D01*
X10066070Y4022039D01*
X10069576Y4020108D01*
X10072928Y4017873D01*
X10077500Y4013809D01*
X10081514Y4009542D01*
X10084968Y4005021D01*
X10089337Y3997909D01*
X10091623Y3992930D01*
X10093452Y3988003D01*
X10094823Y3985818D01*
X10096652Y3983939D01*
X10098836Y3982262D01*
X10100665Y3981450D01*
X10103053Y3980738D01*
X10113264Y3979367D01*
X10116616Y3979316D01*
X10119614Y3979519D01*
X10123728Y3980179D01*
X10126776Y3980179D01*
X10129723Y3979824D01*
X10132618Y3980078D01*
X10134142Y3980535D01*
X10136327Y3982262D01*
X10140238Y3984802D01*
X10141305Y3987698D01*
X10142016Y3991660D01*
X10142169Y3996131D01*
X10141508Y4000296D01*
X10136682Y4015841D01*
X10133787Y4022598D01*
X10130078Y4029252D01*
X10121138Y4041495D01*
X10110520Y4051706D01*
X10098278Y4059885D01*
X10084358Y4066133D01*
X10074148Y4069283D01*
X10063175Y4071823D01*
X10051440Y4073804D01*
X10038994Y4075125D01*
X10025735Y4075887D01*
G37*
G36*
X10344200Y4075988D02*
G01*
X10334650Y4074871D01*
X10328706Y4074718D01*
X10320121Y4072788D01*
X10307574Y4070908D01*
X10303611Y4070096D01*
X10299852Y4069029D01*
X10279938Y4060799D01*
X10272369Y4057091D01*
X10264952Y4052620D01*
X10256012Y4046321D01*
X10247833Y4039260D01*
X10240264Y4031437D01*
X10233456Y4022902D01*
X10227208Y4013758D01*
X10221518Y4004056D01*
X10216337Y3993845D01*
X10210190Y3979722D01*
X10208920Y3976268D01*
X10207040Y3969054D01*
X10203738Y3954830D01*
X10202976Y3949801D01*
X10201452Y3942537D01*
X10201198Y3938371D01*
X10201605Y3934155D01*
X10201198Y3929837D01*
X10200233Y3925671D01*
X10199749Y3920540D01*
X10253167Y3920540D01*
X10253522Y3923588D01*
X10253726Y3928262D01*
X10255250Y3937965D01*
X10256875Y3950462D01*
X10258348Y3956659D01*
X10265613Y3974541D01*
X10274096Y3990136D01*
X10284358Y4003548D01*
X10297464Y4014825D01*
X10304068Y4019651D01*
X10307777Y4021683D01*
X10316565Y4025392D01*
X10321594Y4027017D01*
X10332770Y4029760D01*
X10343692Y4031538D01*
X10357002Y4031487D01*
X10362082Y4030827D01*
X10376560Y4027830D01*
X10381132Y4026560D01*
X10383316Y4025696D01*
X10394950Y4020007D01*
X10405516Y4012946D01*
X10414965Y4004564D01*
X10423296Y3994912D01*
X10430510Y3983939D01*
X10436656Y3971594D01*
X10438333Y3967175D01*
X10440924Y3957828D01*
X10442498Y3953052D01*
X10444378Y3944518D01*
X10445750Y3935018D01*
X10446562Y3924706D01*
X10447121Y3900576D01*
X10446715Y3895750D01*
X10445140Y3889451D01*
X10443514Y3881221D01*
X10442397Y3873144D01*
X10440365Y3865524D01*
X10434523Y3851960D01*
X10429544Y3842715D01*
X10424058Y3834180D01*
X10418114Y3826357D01*
X10411307Y3819245D01*
X10403535Y3812997D01*
X10394797Y3807561D01*
X10385094Y3802938D01*
X10380624Y3801465D01*
X10371124Y3799332D01*
X10363962Y3797452D01*
X10359186Y3797452D01*
X10356900Y3797096D01*
X10355224Y3796588D01*
X10353141Y3796284D01*
X10348010Y3796385D01*
X10337647Y3797960D01*
X10332161Y3798011D01*
X10316768Y3802735D01*
X10311384Y3804970D01*
X10295686Y3813860D01*
X10284510Y3823309D01*
X10275366Y3834688D01*
X10267950Y3847846D01*
X10260330Y3864356D01*
X10258704Y3869537D01*
X10253827Y3896258D01*
X10253522Y3902049D01*
X10253472Y3916832D01*
X10253167Y3920540D01*
X10199749Y3920540D01*
X10199827Y3910279D01*
X10200538Y3903421D01*
X10200690Y3895902D01*
X10201706Y3891026D01*
X10202722Y3881018D01*
X10204196Y3874008D01*
X10203992Y3872280D01*
X10204145Y3870604D01*
X10205008Y3868470D01*
X10207802Y3855770D01*
X10209530Y3849776D01*
X10210698Y3846779D01*
X10218216Y3830574D01*
X10225074Y3818331D01*
X10232694Y3807206D01*
X10241076Y3797096D01*
X10250322Y3787952D01*
X10260736Y3779672D01*
X10272420Y3772306D01*
X10285272Y3765854D01*
X10292740Y3762959D01*
X10300512Y3760317D01*
X10316514Y3755694D01*
X10330992Y3753662D01*
X10334548Y3753662D01*
X10336530Y3753358D01*
X10341203Y3753510D01*
X10346080Y3752799D01*
X10349788Y3752646D01*
X10353852Y3752799D01*
X10356900Y3753154D01*
X10364266Y3753459D01*
X10368076Y3753815D01*
X10390784Y3757422D01*
X10397744Y3759200D01*
X10401096Y3760317D01*
X10415879Y3766058D01*
X10429443Y3772915D01*
X10441787Y3780891D01*
X10452912Y3790035D01*
X10462818Y3800398D01*
X10471708Y3811930D01*
X10479582Y3824630D01*
X10486440Y3838549D01*
X10489184Y3845255D01*
X10496346Y3872077D01*
X10497362Y3879138D01*
X10498378Y3882694D01*
X10500156Y3900220D01*
X10500156Y3906062D01*
X10500715Y3910279D01*
X10500918Y3916730D01*
X10500614Y3923182D01*
X10499344Y3929227D01*
X10499242Y3932377D01*
X10499445Y3935679D01*
X10499191Y3938828D01*
X10496651Y3951884D01*
X10495432Y3959351D01*
X10493044Y3969867D01*
X10486644Y3988409D01*
X10478211Y4006291D01*
X10471353Y4017314D01*
X10463479Y4027627D01*
X10454436Y4037126D01*
X10444327Y4045915D01*
X10433100Y4053941D01*
X10423956Y4059224D01*
X10414203Y4063796D01*
X10403941Y4067606D01*
X10393070Y4070756D01*
X10381691Y4073144D01*
X10369753Y4074820D01*
X10357256Y4075785D01*
G37*
G36*
X7374686Y4075480D02*
G01*
X7373467Y4074668D01*
X7371892Y4074718D01*
X7370267Y4075125D01*
X7368844Y4074718D01*
X7363510Y4074515D01*
X7342174Y4070451D01*
X7334656Y4068521D01*
X7327442Y4065828D01*
X7315606Y4060444D01*
X7304786Y4054348D01*
X7294930Y4047591D01*
X7286040Y4040225D01*
X7277862Y4032199D01*
X7270140Y4023512D01*
X7262875Y4014063D01*
X7256068Y4003852D01*
X7252716Y3997198D01*
X7243876Y3976928D01*
X7240828Y3968242D01*
X7238213Y3955542D01*
X7289444Y3955542D01*
X7289698Y3960622D01*
X7290765Y3965854D01*
X7292289Y3970832D01*
X7294016Y3975303D01*
X7295845Y3979011D01*
X7305649Y3995420D01*
X7315758Y4007662D01*
X7327950Y4017518D01*
X7343698Y4025696D01*
X7363561Y4030116D01*
X7366914Y4030014D01*
X7369098Y4030522D01*
X7370114Y4031030D01*
X7382916Y4030979D01*
X7387996Y4030319D01*
X7407706Y4025696D01*
X7422438Y4018330D01*
X7434122Y4009491D01*
X7443927Y3998823D01*
X7452918Y3986123D01*
X7458760Y3974236D01*
X7463078Y3961485D01*
X7463586Y3957269D01*
X7463078Y3953357D01*
X7461656Y3949852D01*
X7460030Y3947007D01*
X7457338Y3944874D01*
X7453680Y3943451D01*
X7449007Y3942587D01*
X7443266Y3942435D01*
X7421676Y3942943D01*
X7326071Y3942892D01*
X7310424Y3942435D01*
X7304938Y3942537D01*
X7300315Y3943096D01*
X7296658Y3944162D01*
X7293914Y3945686D01*
X7292238Y3947109D01*
X7290917Y3948836D01*
X7290053Y3950817D01*
X7289596Y3953052D01*
X7289444Y3955542D01*
X7238213Y3955542D01*
X7234986Y3939844D01*
X7234681Y3936746D01*
X7234783Y3931869D01*
X7234275Y3928719D01*
X7233716Y3927144D01*
X7233716Y3920591D01*
X7233412Y3917187D01*
X7233462Y3913225D01*
X7233869Y3909110D01*
X7234478Y3906062D01*
X7234478Y3897680D01*
X7236968Y3881831D01*
X7238034Y3876852D01*
X7238949Y3868978D01*
X7242302Y3857091D01*
X7243978Y3849878D01*
X7246264Y3842867D01*
X7252106Y3829608D01*
X7257034Y3820160D01*
X7262418Y3811219D01*
X7268260Y3802735D01*
X7274763Y3794760D01*
X7281925Y3787444D01*
X7289647Y3780790D01*
X7297978Y3774744D01*
X7307884Y3769207D01*
X7319416Y3763568D01*
X7323328Y3762603D01*
X7325664Y3761536D01*
X7333183Y3759047D01*
X7341158Y3756863D01*
X7349693Y3755085D01*
X7356652Y3754323D01*
X7362190Y3753307D01*
X7367219Y3753053D01*
X7370114Y3752646D01*
X7375448Y3752646D01*
X7378192Y3752087D01*
X7383678Y3751935D01*
X7388656Y3752646D01*
X7394498Y3752646D01*
X7397496Y3753053D01*
X7403033Y3753307D01*
X7405928Y3753662D01*
X7421676Y3756456D01*
X7424674Y3757168D01*
X7441742Y3763365D01*
X7451902Y3768090D01*
X7461046Y3773424D01*
X7469174Y3779367D01*
X7476693Y3785870D01*
X7483754Y3793286D01*
X7490409Y3801618D01*
X7496606Y3810812D01*
X7503718Y3824224D01*
X7509306Y3839565D01*
X7510170Y3844036D01*
X7509967Y3847846D01*
X7508646Y3850995D01*
X7506258Y3853535D01*
X7505192Y3854297D01*
X7503718Y3854958D01*
X7501890Y3855465D01*
X7492136Y3856532D01*
X7486700Y3856888D01*
X7481265Y3856634D01*
X7476083Y3856024D01*
X7472121Y3855110D01*
X7470698Y3854551D01*
X7467650Y3852773D01*
X7465110Y3850589D01*
X7463078Y3847947D01*
X7456931Y3835501D01*
X7453325Y3829151D01*
X7449159Y3822954D01*
X7446822Y3820007D01*
X7444282Y3817264D01*
X7438593Y3812336D01*
X7432294Y3808120D01*
X7425842Y3804716D01*
X7418933Y3801973D01*
X7407198Y3798112D01*
X7402677Y3797147D01*
X7397496Y3796436D01*
X7391603Y3795979D01*
X7378446Y3795979D01*
X7372553Y3796436D01*
X7367270Y3797147D01*
X7362748Y3798112D01*
X7359243Y3798315D01*
X7352639Y3799992D01*
X7344409Y3802583D01*
X7340650Y3804259D01*
X7330541Y3809339D01*
X7321448Y3815486D01*
X7313371Y3822649D01*
X7306208Y3830878D01*
X7300061Y3840124D01*
X7293864Y3852875D01*
X7292086Y3857853D01*
X7288530Y3872636D01*
X7287818Y3880459D01*
X7287361Y3881983D01*
X7287158Y3883558D01*
X7287818Y3886809D01*
X7290104Y3891838D01*
X7292594Y3894836D01*
X7294930Y3896715D01*
X7298436Y3898087D01*
X7302804Y3898696D01*
X7310018Y3898950D01*
X7471867Y3898900D01*
X7496505Y3898493D01*
X7506004Y3899204D01*
X7510932Y3900576D01*
X7512964Y3901490D01*
X7514640Y3902557D01*
X7516012Y3904335D01*
X7517130Y3906723D01*
X7517942Y3909669D01*
X7518806Y3916781D01*
X7518908Y3920236D01*
X7518704Y3923537D01*
X7517434Y3932885D01*
X7516418Y3943451D01*
X7514183Y3951833D01*
X7512608Y3960215D01*
X7510729Y3968445D01*
X7505192Y3984244D01*
X7502702Y3991965D01*
X7499756Y3999484D01*
X7496098Y4006443D01*
X7488732Y4018127D01*
X7477963Y4032707D01*
X7473645Y4037533D01*
X7468565Y4042257D01*
X7461300Y4048302D01*
X7458964Y4049776D01*
X7454900Y4053586D01*
X7436256Y4063644D01*
X7418628Y4070451D01*
X7408925Y4072839D01*
X7398359Y4074515D01*
X7386980Y4075379D01*
G37*
G36*
X8641384Y4075480D02*
G01*
X8640013Y4074668D01*
X8638336Y4074718D01*
X8636711Y4075125D01*
X8635288Y4074718D01*
X8629954Y4074515D01*
X8608618Y4070451D01*
X8601252Y4068521D01*
X8593886Y4065828D01*
X8582152Y4060444D01*
X8571331Y4054348D01*
X8561476Y4047591D01*
X8552484Y4040225D01*
X8544306Y4032199D01*
X8536584Y4023512D01*
X8529320Y4014063D01*
X8522512Y4003852D01*
X8519210Y3997198D01*
X8513572Y3983634D01*
X8510574Y3976928D01*
X8508898Y3972661D01*
X8506358Y3963670D01*
X8504911Y3955542D01*
X8556040Y3955542D01*
X8556294Y3960622D01*
X8557463Y3965854D01*
X8558987Y3970832D01*
X8560765Y3975303D01*
X8562543Y3979011D01*
X8572296Y3995420D01*
X8582202Y4007662D01*
X8594547Y4017518D01*
X8610142Y4025696D01*
X8629091Y4030014D01*
X8633612Y4030014D01*
X8635644Y4030522D01*
X8636558Y4031030D01*
X8649462Y4030979D01*
X8654542Y4030319D01*
X8674404Y4025696D01*
X8689136Y4018330D01*
X8700820Y4009491D01*
X8710523Y3998823D01*
X8719362Y3986123D01*
X8725204Y3974236D01*
X8729522Y3961485D01*
X8730183Y3957269D01*
X8729980Y3955287D01*
X8728964Y3951528D01*
X8727440Y3948328D01*
X8726474Y3947007D01*
X8723884Y3944874D01*
X8720277Y3943451D01*
X8715502Y3942587D01*
X8709710Y3942435D01*
X8688120Y3942943D01*
X8592515Y3942892D01*
X8576868Y3942435D01*
X8571433Y3942537D01*
X8566912Y3943096D01*
X8563203Y3944162D01*
X8560358Y3945686D01*
X8558784Y3947109D01*
X8557564Y3948836D01*
X8556752Y3950817D01*
X8556040Y3955542D01*
X8504911Y3955542D01*
X8501176Y3936746D01*
X8501227Y3930294D01*
X8500414Y3927144D01*
X8500414Y3920591D01*
X8500110Y3917187D01*
X8500465Y3909110D01*
X8500922Y3906062D01*
X8500922Y3897680D01*
X8501989Y3892346D01*
X8503970Y3879342D01*
X8505190Y3873042D01*
X8505748Y3867759D01*
X8508034Y3860647D01*
X8511540Y3846322D01*
X8512708Y3842867D01*
X8518601Y3829608D01*
X8523528Y3820160D01*
X8529015Y3811219D01*
X8534958Y3802735D01*
X8541410Y3794760D01*
X8548471Y3787444D01*
X8556244Y3780790D01*
X8564676Y3774744D01*
X8574532Y3769207D01*
X8586063Y3763568D01*
X8589924Y3762603D01*
X8592108Y3761536D01*
X8602522Y3758285D01*
X8613190Y3755694D01*
X8623249Y3754323D01*
X8628735Y3753307D01*
X8633714Y3753053D01*
X8636558Y3752646D01*
X8641892Y3752646D01*
X8644737Y3752087D01*
X8650173Y3751935D01*
X8655100Y3752646D01*
X8661196Y3752646D01*
X8664143Y3753053D01*
X8669629Y3753307D01*
X8672626Y3753662D01*
X8691168Y3757168D01*
X8708440Y3763365D01*
X8718600Y3768090D01*
X8727744Y3773424D01*
X8735872Y3779367D01*
X8743289Y3785870D01*
X8750350Y3793286D01*
X8757005Y3801618D01*
X8763304Y3810812D01*
X8770213Y3824224D01*
X8775750Y3839565D01*
X8776716Y3844036D01*
X8776512Y3847846D01*
X8775192Y3850995D01*
X8772702Y3853535D01*
X8771636Y3854297D01*
X8770162Y3854958D01*
X8768334Y3855465D01*
X8758580Y3856532D01*
X8753297Y3856888D01*
X8747912Y3856634D01*
X8742680Y3856024D01*
X8738768Y3855110D01*
X8737396Y3854551D01*
X8734348Y3852773D01*
X8731758Y3850589D01*
X8729624Y3847947D01*
X8727998Y3844899D01*
X8725204Y3838600D01*
X8721902Y3832402D01*
X8717889Y3826001D01*
X8713520Y3820007D01*
X8710980Y3817264D01*
X8705291Y3812336D01*
X8698992Y3808120D01*
X8692540Y3804716D01*
X8685631Y3801973D01*
X8673896Y3798112D01*
X8669375Y3797147D01*
X8664143Y3796436D01*
X8658199Y3795979D01*
X8645042Y3795979D01*
X8639149Y3796436D01*
X8633968Y3797147D01*
X8629446Y3798112D01*
X8625738Y3798315D01*
X8614968Y3801160D01*
X8610955Y3802583D01*
X8607094Y3804259D01*
X8597036Y3809339D01*
X8587943Y3815486D01*
X8579866Y3822649D01*
X8572754Y3830878D01*
X8566708Y3840124D01*
X8560460Y3852875D01*
X8558682Y3857853D01*
X8555532Y3870299D01*
X8554516Y3880459D01*
X8554059Y3881983D01*
X8553907Y3883558D01*
X8554059Y3885133D01*
X8555024Y3888333D01*
X8556193Y3890873D01*
X8557971Y3893515D01*
X8560358Y3895902D01*
X8563254Y3897477D01*
X8567216Y3898493D01*
X8571788Y3898849D01*
X8578900Y3899001D01*
X8741714Y3898849D01*
X8748826Y3898595D01*
X8763050Y3898493D01*
X8772448Y3899204D01*
X8777528Y3900576D01*
X8779510Y3901490D01*
X8781084Y3902557D01*
X8782456Y3904335D01*
X8783624Y3906723D01*
X8784539Y3909669D01*
X8785148Y3913225D01*
X8785453Y3920236D01*
X8785301Y3923537D01*
X8783878Y3935018D01*
X8783116Y3943451D01*
X8780830Y3951833D01*
X8777173Y3968445D01*
X8767876Y3995775D01*
X8766352Y3999484D01*
X8764574Y4003040D01*
X8755176Y4018127D01*
X8744407Y4032707D01*
X8740089Y4037533D01*
X8735110Y4042257D01*
X8730183Y4046474D01*
X8724595Y4050639D01*
X8722715Y4052671D01*
X8720277Y4054348D01*
X8718854Y4054957D01*
X8702903Y4063644D01*
X8685072Y4070451D01*
X8675370Y4072839D01*
X8664905Y4074515D01*
X8653526Y4075379D01*
G37*
G36*
X9519208Y4075480D02*
G01*
X9517786Y4074668D01*
X9516160Y4074718D01*
X9514484Y4075125D01*
X9513112Y4074718D01*
X9507778Y4074515D01*
X9486442Y4070451D01*
X9479076Y4068521D01*
X9471710Y4065828D01*
X9459874Y4060444D01*
X9449054Y4054348D01*
X9439198Y4047591D01*
X9430308Y4040225D01*
X9422130Y4032199D01*
X9414408Y4023512D01*
X9407144Y4014063D01*
X9400336Y4003852D01*
X9396984Y3997198D01*
X9393986Y3990441D01*
X9391345Y3983634D01*
X9388398Y3976928D01*
X9385350Y3968242D01*
X9382735Y3955542D01*
X9433864Y3955542D01*
X9434118Y3960622D01*
X9435287Y3965854D01*
X9436811Y3970832D01*
X9438538Y3975303D01*
X9440367Y3979011D01*
X9450120Y3995420D01*
X9460026Y4007662D01*
X9472320Y4017518D01*
X9487966Y4025696D01*
X9507982Y4030116D01*
X9512452Y4030167D01*
X9514382Y4031030D01*
X9527184Y4030979D01*
X9532264Y4030319D01*
X9552228Y4025696D01*
X9566960Y4018330D01*
X9578644Y4009491D01*
X9588347Y3998823D01*
X9597186Y3986123D01*
X9603028Y3974236D01*
X9607346Y3961485D01*
X9607804Y3959351D01*
X9607956Y3957269D01*
X9607804Y3955287D01*
X9606686Y3951528D01*
X9605162Y3948328D01*
X9604298Y3947007D01*
X9601708Y3944874D01*
X9598101Y3943451D01*
X9593326Y3942587D01*
X9587534Y3942435D01*
X9565944Y3942943D01*
X9470339Y3942892D01*
X9454692Y3942435D01*
X9449257Y3942537D01*
X9444736Y3943096D01*
X9441027Y3944162D01*
X9438182Y3945686D01*
X9436608Y3947109D01*
X9435388Y3948836D01*
X9434576Y3950817D01*
X9433864Y3955542D01*
X9382735Y3955542D01*
X9379000Y3936746D01*
X9379051Y3930294D01*
X9378238Y3927144D01*
X9378238Y3920591D01*
X9377781Y3917187D01*
X9378289Y3909110D01*
X9378746Y3906062D01*
X9378746Y3897680D01*
X9379813Y3892346D01*
X9381794Y3879342D01*
X9383014Y3873042D01*
X9383572Y3867759D01*
X9385808Y3860647D01*
X9387382Y3853535D01*
X9389262Y3846322D01*
X9391954Y3839565D01*
X9396374Y3829608D01*
X9401352Y3820160D01*
X9406839Y3811219D01*
X9412782Y3802735D01*
X9419234Y3794760D01*
X9426295Y3787444D01*
X9434068Y3780790D01*
X9442500Y3774744D01*
X9452356Y3769207D01*
X9463887Y3763568D01*
X9467799Y3762603D01*
X9469932Y3761536D01*
X9477451Y3759047D01*
X9488322Y3756253D01*
X9495891Y3754882D01*
X9507778Y3753205D01*
X9512909Y3752900D01*
X9514382Y3752646D01*
X9519716Y3752646D01*
X9522561Y3752087D01*
X9527946Y3751935D01*
X9532924Y3752646D01*
X9539020Y3752646D01*
X9541916Y3753053D01*
X9547453Y3753307D01*
X9550450Y3753662D01*
X9568992Y3757168D01*
X9586264Y3763365D01*
X9596424Y3768090D01*
X9605568Y3773424D01*
X9613696Y3779367D01*
X9621113Y3785870D01*
X9628124Y3793286D01*
X9634677Y3801618D01*
X9640874Y3810812D01*
X9647986Y3824224D01*
X9653574Y3839565D01*
X9654540Y3844036D01*
X9654336Y3847846D01*
X9653016Y3850995D01*
X9650526Y3853535D01*
X9649460Y3854297D01*
X9647986Y3854958D01*
X9646158Y3855465D01*
X9636404Y3856532D01*
X9631070Y3856888D01*
X9625787Y3856634D01*
X9620504Y3856024D01*
X9616592Y3855110D01*
X9615220Y3854551D01*
X9612172Y3852773D01*
X9609582Y3850589D01*
X9607448Y3847947D01*
X9605822Y3844899D01*
X9602978Y3838600D01*
X9595612Y3826001D01*
X9591090Y3820007D01*
X9588652Y3817264D01*
X9586010Y3814724D01*
X9579914Y3810101D01*
X9573615Y3806342D01*
X9566960Y3803243D01*
X9559747Y3800652D01*
X9551720Y3798112D01*
X9547098Y3797147D01*
X9541814Y3796436D01*
X9535922Y3795979D01*
X9522866Y3795979D01*
X9516973Y3796436D01*
X9511792Y3797147D01*
X9507270Y3798112D01*
X9503562Y3798315D01*
X9492792Y3801160D01*
X9488678Y3802583D01*
X9484918Y3804259D01*
X9474860Y3809339D01*
X9465767Y3815486D01*
X9457690Y3822649D01*
X9450578Y3830878D01*
X9444532Y3840124D01*
X9438284Y3852875D01*
X9436506Y3857853D01*
X9433356Y3870299D01*
X9432645Y3877564D01*
X9431680Y3881983D01*
X9431680Y3885133D01*
X9432696Y3888333D01*
X9434017Y3890873D01*
X9435795Y3893515D01*
X9438182Y3895902D01*
X9441078Y3897477D01*
X9442856Y3898087D01*
X9447072Y3898696D01*
X9456724Y3899001D01*
X9619538Y3898849D01*
X9626650Y3898595D01*
X9640874Y3898493D01*
X9650272Y3899204D01*
X9655352Y3900576D01*
X9657334Y3901490D01*
X9658908Y3902557D01*
X9660280Y3904335D01*
X9661448Y3906723D01*
X9662312Y3909669D01*
X9662972Y3913225D01*
X9663277Y3920236D01*
X9663125Y3923537D01*
X9660686Y3943451D01*
X9658604Y3951833D01*
X9654946Y3968445D01*
X9645700Y3995775D01*
X9644176Y3999484D01*
X9642398Y4003040D01*
X9633000Y4018127D01*
X9622231Y4032707D01*
X9617913Y4037533D01*
X9612934Y4042257D01*
X9608007Y4046474D01*
X9602419Y4050639D01*
X9600438Y4052671D01*
X9598050Y4054348D01*
X9580727Y4063644D01*
X9562896Y4070451D01*
X9553194Y4072839D01*
X9542729Y4074515D01*
X9531350Y4075379D01*
G37*
G36*
X10702086Y4074769D02*
G01*
X10695990Y4074464D01*
X10686338Y4072737D01*
X10680700Y4072026D01*
X10675366Y4070756D01*
X10667441Y4068064D01*
X10662259Y4065981D01*
X10657382Y4063746D01*
X10652810Y4061307D01*
X10644225Y4055973D01*
X10635792Y4050080D01*
X10633405Y4048201D01*
X10628680Y4043476D01*
X10624058Y4038092D01*
X10621314Y4036263D01*
X10618216Y4035298D01*
X10614710Y4035094D01*
X10611713Y4037888D01*
X10610646Y4039514D01*
X10609884Y4041241D01*
X10608919Y4045051D01*
X10608310Y4048658D01*
X10608005Y4052011D01*
X10608005Y4058208D01*
X10607040Y4061002D01*
X10605109Y4063542D01*
X10602264Y4065828D01*
X10599775Y4066946D01*
X10595914Y4067657D01*
X10586516Y4068165D01*
X10577372Y4067657D01*
X10573359Y4067048D01*
X10570514Y4066336D01*
X10568533Y4065574D01*
X10566806Y4064508D01*
X10565485Y4063187D01*
X10563301Y4059885D01*
X10562488Y4057904D01*
X10562031Y4055668D01*
X10561878Y4053128D01*
X10561878Y3773525D01*
X10562183Y3769664D01*
X10563098Y3766515D01*
X10564571Y3764076D01*
X10568330Y3761181D01*
X10570057Y3760317D01*
X10571988Y3759657D01*
X10578338Y3758692D01*
X10582960Y3758488D01*
X10598200Y3758996D01*
X10601706Y3759454D01*
X10604652Y3760419D01*
X10607040Y3761994D01*
X10608868Y3764127D01*
X10610189Y3766312D01*
X10611154Y3768851D01*
X10611713Y3771747D01*
X10611916Y3775049D01*
X10611866Y3918508D01*
X10611358Y3923588D01*
X10611612Y3925722D01*
X10611916Y3926636D01*
X10611916Y3939133D01*
X10612577Y3941673D01*
X10612323Y3947058D01*
X10613999Y3954932D01*
X10614710Y3959910D01*
X10615726Y3964940D01*
X10617250Y3969867D01*
X10622788Y3983888D01*
X10629696Y3996080D01*
X10638028Y4006392D01*
X10647730Y4014825D01*
X10651134Y4016552D01*
X10654995Y4018991D01*
X10659211Y4021328D01*
X10665663Y4024122D01*
X10672572Y4026306D01*
X10684916Y4029506D01*
X10689031Y4029506D01*
X10691063Y4029862D01*
X10693552Y4030624D01*
X10697921Y4031132D01*
X10703763Y4031386D01*
X10708487Y4031284D01*
X10710214Y4031030D01*
X10713821Y4030065D01*
X10721543Y4029049D01*
X10725200Y4028033D01*
X10731347Y4025646D01*
X10737088Y4022953D01*
X10742371Y4019804D01*
X10747298Y4016349D01*
X10751820Y4012234D01*
X10755731Y4007612D01*
X10759084Y4002481D01*
X10761776Y3996791D01*
X10765536Y3984244D01*
X10767110Y3969562D01*
X10767669Y3953510D01*
X10767872Y3937304D01*
X10767872Y3774744D01*
X10768025Y3771646D01*
X10768584Y3768801D01*
X10769447Y3766312D01*
X10770666Y3764127D01*
X10772444Y3761994D01*
X10774781Y3760419D01*
X10777677Y3759454D01*
X10781080Y3758996D01*
X10796066Y3758488D01*
X10802924Y3758996D01*
X10806176Y3759454D01*
X10809274Y3760317D01*
X10812627Y3762248D01*
X10815116Y3765092D01*
X10816691Y3768851D01*
X10817402Y3773525D01*
X10817606Y3783837D01*
X10817656Y3951833D01*
X10817453Y3965397D01*
X10816488Y3985209D01*
X10815777Y3991508D01*
X10814710Y3997553D01*
X10811510Y4010456D01*
X10808411Y4020972D01*
X10805464Y4027322D01*
X10803686Y4030268D01*
X10796270Y4040987D01*
X10787684Y4050284D01*
X10777982Y4058158D01*
X10767110Y4064609D01*
X10754868Y4069486D01*
X10740694Y4072839D01*
X10724642Y4074566D01*
G37*
G36*
X8101888Y4068927D02*
G01*
X8098434Y4067810D01*
X8095284Y4067149D01*
X8093964Y4066590D01*
X8092744Y4065778D01*
X8091678Y4064711D01*
X8089392Y4061358D01*
X8088426Y4059072D01*
X8087868Y4056430D01*
X8087664Y4053433D01*
X8087664Y3775760D01*
X8087817Y3773017D01*
X8088223Y3770528D01*
X8088934Y3768293D01*
X8089950Y3766362D01*
X8091627Y3764229D01*
X8093608Y3762552D01*
X8095945Y3761435D01*
X8101634Y3760368D01*
X8108492Y3759860D01*
X8121192Y3759809D01*
X8129574Y3761841D01*
X8131251Y3762501D01*
X8132673Y3763467D01*
X8133892Y3764787D01*
X8136229Y3768344D01*
X8137144Y3770629D01*
X8137601Y3773271D01*
X8137448Y3785514D01*
X8137448Y4054144D01*
X8137245Y4056837D01*
X8136686Y4059224D01*
X8135721Y4061409D01*
X8132572Y4065422D01*
X8130082Y4066997D01*
X8126984Y4067962D01*
X8119211Y4068622D01*
X8107476Y4068927D01*
X8106156Y4068368D01*
X8104682Y4068368D01*
G37*
G36*
X8205774Y4068927D02*
G01*
X8205266Y4068572D01*
X8202879Y4068165D01*
X8200948Y4068165D01*
X8197138Y4066641D01*
X8193836Y4064101D01*
X8192820Y4061815D01*
X8192363Y4059377D01*
X8192465Y4056735D01*
X8193074Y4053941D01*
X8196122Y4044238D01*
X8200186Y4034028D01*
X8207451Y4013504D01*
X8211870Y4003344D01*
X8214918Y3993845D01*
X8226247Y3962450D01*
X8235746Y3938574D01*
X8246668Y3909517D01*
X8256828Y3880205D01*
X8262162Y3865575D01*
X8267750Y3850995D01*
X8274202Y3835146D01*
X8275675Y3830320D01*
X8288578Y3795268D01*
X8291779Y3787698D01*
X8294217Y3780993D01*
X8296249Y3774236D01*
X8297570Y3771188D01*
X8299297Y3768394D01*
X8301278Y3765854D01*
X8303615Y3763416D01*
X8306612Y3761638D01*
X8310219Y3760520D01*
X8314486Y3760012D01*
X8342172Y3759809D01*
X8346490Y3760215D01*
X8350300Y3761536D01*
X8353348Y3763264D01*
X8355838Y3765245D01*
X8357768Y3767582D01*
X8359190Y3770223D01*
X8361476Y3776218D01*
X8364270Y3782618D01*
X8368080Y3792220D01*
X8377986Y3821023D01*
X8382965Y3833368D01*
X8387638Y3845763D01*
X8400440Y3883304D01*
X8404910Y3895801D01*
X8414562Y3920591D01*
X8417915Y3928516D01*
X8426500Y3952341D01*
X8430869Y3963162D01*
X8436000Y3979316D01*
X8439962Y3989882D01*
X8442858Y3996486D01*
X8445195Y4004919D01*
X8448141Y4011523D01*
X8452307Y4022090D01*
X8459520Y4043222D01*
X8462416Y4051096D01*
X8463127Y4053840D01*
X8463534Y4056583D01*
X8463584Y4059275D01*
X8463026Y4061764D01*
X8461857Y4063898D01*
X8460130Y4065676D01*
X8457742Y4067149D01*
X8454593Y4067962D01*
X8447430Y4068775D01*
X8443518Y4068927D01*
X8435594Y4068724D01*
X8429040Y4068165D01*
X8426094Y4067708D01*
X8423249Y4066997D01*
X8420608Y4065930D01*
X8418118Y4064609D01*
X8415375Y4061307D01*
X8413292Y4057446D01*
X8411718Y4053230D01*
X8404910Y4032351D01*
X8402421Y4023766D01*
X8399576Y4015333D01*
X8395766Y4005783D01*
X8392464Y3995978D01*
X8386368Y3975709D01*
X8378698Y3953052D01*
X8364067Y3907993D01*
X8352332Y3873296D01*
X8345170Y3849827D01*
X8340902Y3838549D01*
X8336838Y3829862D01*
X8335416Y3827627D01*
X8333740Y3826205D01*
X8331758Y3825595D01*
X8329472Y3825849D01*
X8327491Y3826662D01*
X8325815Y3827983D01*
X8324443Y3829710D01*
X8322513Y3834180D01*
X8320328Y3840835D01*
X8318042Y3846169D01*
X8316010Y3851605D01*
X8314232Y3857091D01*
X8311083Y3868216D01*
X8307425Y3879138D01*
X8301431Y3895344D01*
X8293862Y3917086D01*
X8279790Y3960622D01*
X8272576Y3982313D01*
X8259521Y4018991D01*
X8254339Y4035755D01*
X8251393Y4044137D01*
X8247075Y4055414D01*
X8246414Y4057751D01*
X8245500Y4059885D01*
X8244179Y4061866D01*
X8242553Y4063593D01*
X8240572Y4065117D01*
X8237626Y4066743D01*
X8234019Y4067962D01*
X8229853Y4068673D01*
X8225078Y4068927D01*
G37*
D10*
X4889500Y3421887D02*
G01*
X4899913Y3427221D01*
X4915408Y3442715D01*
X4915408Y3333750D01*
X4668324Y3916088D02*
G01*
X4662990Y3926502D01*
X4652576Y3936916D01*
X4642416Y3941996D01*
X4621588Y3941996D01*
X4611174Y3936916D01*
X4600760Y3926502D01*
X4595426Y3916088D01*
X4590346Y3900340D01*
X4590346Y3874432D01*
X4595426Y3858938D01*
X4600760Y3848524D01*
X4611174Y3838110D01*
X4621588Y3833030D01*
X4642416Y3833030D01*
X4652576Y3838110D01*
X4662990Y3848524D01*
X4668324Y3858938D01*
X4702614Y3921168D02*
G01*
X4713028Y3926502D01*
X4728522Y3941996D01*
X4728522Y3833030D01*
X3882903Y3941996D02*
G01*
X3882903Y3833030D01*
X3882903Y3833030D02*
G01*
X3945133Y3833030D01*
X3979423Y3941996D02*
G01*
X3979423Y3833030D01*
X3979423Y3941996D02*
G01*
X4046987Y3941996D01*
X3979423Y3890180D02*
G01*
X4021079Y3890180D01*
X3979423Y3833030D02*
G01*
X4046987Y3833030D01*
X4081277Y3941996D02*
G01*
X4081277Y3833030D01*
X4081277Y3941996D02*
G01*
X4117853Y3941996D01*
X4133347Y3936916D01*
X4143761Y3926502D01*
X4148841Y3916088D01*
X4154175Y3900340D01*
X4154175Y3874432D01*
X4148841Y3858938D01*
X4143761Y3848524D01*
X4133347Y3838110D01*
X4117853Y3833030D01*
X4081277Y3833030D01*
X4188465Y3921168D02*
G01*
X4198879Y3926502D01*
X4214373Y3941996D01*
X4214373Y3833030D01*
X5097861Y3941996D02*
G01*
X5097861Y3833030D01*
X5097861Y3941996D02*
G01*
X5144597Y3941996D01*
X5160091Y3936916D01*
X5165425Y3931582D01*
X5170505Y3921168D01*
X5170505Y3910754D01*
X5165425Y3900340D01*
X5160091Y3895260D01*
X5144597Y3890180D01*
X5097861Y3890180D01*
X5134183Y3890180D02*
G01*
X5170505Y3833030D01*
X5204795Y3921168D02*
G01*
X5215209Y3926502D01*
X5230957Y3941996D01*
X5230957Y3833030D01*
X5558640Y3941996D02*
G01*
X5558640Y3864018D01*
X5563720Y3848524D01*
X5574134Y3838110D01*
X5589882Y3833030D01*
X5600296Y3833030D01*
X5615790Y3838110D01*
X5626204Y3848524D01*
X5631284Y3864018D01*
X5631284Y3941996D01*
X5665574Y3921168D02*
G01*
X5675988Y3926502D01*
X5691736Y3941996D01*
X5691736Y3833030D01*
D11*
X4562327Y3654122D02*
G01*
X4482330Y3654122D01*
X4618372Y3654077D02*
G01*
X4698370Y3654077D01*
X4562327Y3796090D02*
G01*
X4482330Y3796090D01*
X4618372Y3796042D02*
G01*
X4698370Y3796042D01*
X4451355Y3685105D02*
G01*
X4451355Y3765110D01*
X4729347Y3765057D02*
G01*
X4729347Y3685054D01*
X3956055Y3597953D02*
G01*
X4110995Y3597953D01*
X4110995Y3801153D01*
X3956055Y3801153D01*
X3877315Y3595413D02*
G01*
X3729995Y3595413D01*
X3689355Y3636053D01*
X3689355Y3763053D01*
X3727455Y3801153D01*
X3879855Y3801153D01*
X3931732Y3749680D02*
G01*
X3931732Y3649654D01*
X3921739Y3699680D02*
G01*
X3894841Y3699680D01*
D10*
X5140482Y3659019D02*
G01*
X5236370Y3659019D01*
X5236370Y3791140D01*
X5140482Y3791140D01*
X5055240Y3659019D02*
G01*
X4959352Y3659019D01*
X4959352Y3791140D01*
X5055240Y3791140D01*
D11*
X5700712Y3609893D02*
G01*
X5700712Y3595705D01*
X5633219Y3795707D02*
G01*
X5700712Y3795707D01*
X5700712Y3781511D01*
X5500712Y3781511D02*
G01*
X5500712Y3795707D01*
X5568210Y3795707D01*
X5500712Y3595705D02*
G01*
X5500712Y3609893D01*
X5568210Y3595705D02*
G01*
X5500712Y3595705D01*
X5700712Y3595705D02*
G01*
X5633219Y3595705D01*
G75*
G01*
X4698365Y3796043D02*
G02*
X4729348Y3765057I0J-30983D01*
G75*
G01*
X4729348Y3685060D02*
G02*
X4698365Y3654077I-30983J0D01*
G75*
G01*
X4482335Y3654123D02*
G02*
X4451355Y3685106I3J30983D01*
G75*
G01*
X4451355Y3765103D02*
G02*
X4482335Y3796091I30983J5D01*
G75*
G01
X5480050Y3746475D02*
G03X5480050Y3746475I-6350J0D01*
M02*
