G04 Layer: BottomLayer*
G04 EasyEDA v6.5.51, 2026-08-23 07:33:02*
G04 593b3b684d2d4ec085ee971abedc3450,ec37ab971b5f4b32b87b66fb5d5cdcb1,10*
G04 Gerber Generator version 0.2*
G04 Scale: 100 percent, Rotated: No, Reflected: No *
G04 Dimensions in millimeters *
G04 leading zeros omitted , absolute positions ,4 integer and 5 decimal *
%FSLAX45Y45*%
%MOMM*%

%ADD10C,0.2540*%
%ADD11C,0.8080*%
%ADD12C,0.6200*%
%ADD13C,0.0166*%

%LPD*%
G36*
X6264910Y3299307D02*
G01*
X6208420Y3287166D01*
X6173520Y3259226D01*
X6135776Y3219653D01*
X6077102Y3137357D01*
X6011621Y3036824D01*
X5975248Y2984144D01*
X5876442Y2878632D01*
X5761126Y2774543D01*
X5693613Y2720390D01*
X5572658Y2593492D01*
X5556910Y2570632D01*
X5513120Y2517698D01*
X5471007Y2429002D01*
X5412994Y2310130D01*
X5380532Y2260193D01*
X5380532Y2252776D01*
X5244896Y2090775D01*
X5213604Y2045970D01*
X5190388Y2028647D01*
X5166106Y2037842D01*
X5148326Y2054199D01*
X5104282Y2086203D01*
X4939538Y2216150D01*
X4920894Y2234031D01*
X4893919Y2246172D01*
X4880102Y2257907D01*
X4851349Y2280412D01*
X4786071Y2308199D01*
X4735728Y2308809D01*
X4701844Y2286406D01*
X4647031Y2229408D01*
X4607001Y2191308D01*
X4517440Y2086203D01*
X4489348Y2054199D01*
X4489348Y2048662D01*
X4429607Y1985670D01*
X4339742Y1866849D01*
X4323435Y1834845D01*
X4306519Y1822907D01*
X4306519Y1809394D01*
X4292701Y1804111D01*
X4249521Y1739747D01*
X4176268Y1676044D01*
X4121404Y1629308D01*
X4092346Y1599488D01*
X4083100Y1599488D01*
X4071162Y1583232D01*
X4025442Y1555242D01*
X3963568Y1524355D01*
X3852011Y1434338D01*
X3838041Y1420977D01*
X3796944Y1394104D01*
X3758184Y1388211D01*
X3734612Y1394155D01*
X3636975Y1493062D01*
X3586683Y1524050D01*
X3513582Y1523187D01*
X3454146Y1495958D01*
X3303270Y1345793D01*
X3239262Y1272692D01*
X3207359Y1228445D01*
X3166211Y1181608D01*
X3088538Y1099007D01*
X3066745Y1081379D01*
X2996946Y993902D01*
X2933141Y927049D01*
X2870352Y865936D01*
X2791663Y774496D01*
X2616454Y600862D01*
X2601569Y576986D01*
X2616911Y564286D01*
X2759862Y564286D01*
X2786024Y582574D01*
X2816453Y600862D01*
X2869133Y635965D01*
X2955036Y692251D01*
X2983433Y712978D01*
X3006242Y728929D01*
X3042259Y760780D01*
X3096209Y811072D01*
X3161639Y896823D01*
X3175101Y916178D01*
X3214217Y965047D01*
X3214217Y971600D01*
X3230930Y989533D01*
X3248202Y1016762D01*
X3349650Y1153871D01*
X3396030Y1222400D01*
X3455212Y1313840D01*
X3498443Y1361795D01*
X3507181Y1361795D01*
X3544976Y1380083D01*
X3570071Y1380083D01*
X3589985Y1352143D01*
X3617366Y1297330D01*
X3629355Y1254404D01*
X3639312Y1226972D01*
X3648760Y1188008D01*
X3683101Y1165301D01*
X3751224Y1164488D01*
X3770884Y1151940D01*
X3805529Y1094435D01*
X3839718Y1047699D01*
X3883761Y1009954D01*
X3912006Y996442D01*
X3998010Y912825D01*
X4063542Y882294D01*
X4089450Y876401D01*
X4160723Y854506D01*
X4184345Y854506D01*
X4277512Y900023D01*
X4336237Y912520D01*
X4379772Y933246D01*
X4385005Y941730D01*
X4374591Y954328D01*
X4308805Y964437D01*
X4253941Y977900D01*
X4170172Y987044D01*
X4124655Y1009903D01*
X4114495Y1009903D01*
X3975150Y1144930D01*
X3938625Y1171803D01*
X3923487Y1185824D01*
X3860901Y1235557D01*
X3835654Y1264920D01*
X3844696Y1288694D01*
X3858818Y1288694D01*
X3929481Y1325524D01*
X3967175Y1350365D01*
X3993438Y1368552D01*
X4057446Y1416862D01*
X4098594Y1453286D01*
X4136694Y1482902D01*
X4217416Y1550873D01*
X4231132Y1563268D01*
X4295089Y1611020D01*
X4319879Y1626870D01*
X4380941Y1683969D01*
X4396536Y1720596D01*
X4403191Y1757121D01*
X4427321Y1811985D01*
X4452823Y1847697D01*
X4656175Y2058974D01*
X4724349Y2130348D01*
X4757674Y2156764D01*
X4803444Y2086203D01*
X4818176Y2057400D01*
X4897120Y1930806D01*
X4904536Y1912518D01*
X4953203Y1852117D01*
X4982260Y1827733D01*
X5099456Y1788668D01*
X5126888Y1771853D01*
X5147259Y1740814D01*
X5160162Y1693164D01*
X5185562Y1638706D01*
X5276646Y1549247D01*
X5325414Y1525422D01*
X5360009Y1546606D01*
X5410250Y1584198D01*
X5420512Y1590141D01*
X5443270Y1569059D01*
X5460136Y1542338D01*
X5509310Y1476044D01*
X5524957Y1476044D01*
X5534812Y1466240D01*
X5540552Y1496872D01*
X5530697Y1569770D01*
X5522620Y1633728D01*
X5522214Y1709420D01*
X5509869Y1738833D01*
X5339435Y1908302D01*
X5339435Y1954022D01*
X5357977Y1990242D01*
X5371287Y2034793D01*
X5380990Y2046528D01*
X5471820Y2223312D01*
X5541416Y2367330D01*
X5563260Y2399538D01*
X5578246Y2429002D01*
X5590082Y2442667D01*
X5630164Y2483815D01*
X5693613Y2539796D01*
X5766816Y2602636D01*
X5858764Y2689504D01*
X5957773Y2780893D01*
X5990691Y2813304D01*
X6031839Y2859532D01*
X6050127Y2885186D01*
X6072936Y2914853D01*
X6088583Y2940862D01*
X6183528Y3082544D01*
X6210046Y3126232D01*
X6235192Y3159201D01*
X6235192Y3166872D01*
X6262166Y3180791D01*
X6267043Y3180791D01*
X6294983Y3125520D01*
X6318554Y3059684D01*
X6325412Y3050540D01*
X6341770Y3000248D01*
X6377940Y2927807D01*
X6395110Y2877870D01*
X6402984Y2867710D01*
X6413500Y2824632D01*
X6436309Y2791053D01*
X6436563Y2780893D01*
X6461607Y2753461D01*
X6531864Y2696057D01*
X6562750Y2657500D01*
X6573977Y2566111D01*
X6586524Y2497531D01*
X6592824Y2433574D01*
X6609130Y2387854D01*
X6618528Y2331516D01*
X6636512Y2296210D01*
X6642963Y2250744D01*
X6653987Y2232456D01*
X6674307Y2181656D01*
X6700062Y2166467D01*
X6726529Y2174392D01*
X6758482Y2188972D01*
X6808774Y2221026D01*
X6840524Y2235708D01*
X6883704Y2231542D01*
X6918452Y2201367D01*
X6965696Y2139188D01*
X6997801Y2072487D01*
X7007352Y2035911D01*
X7019899Y2017623D01*
X7030110Y1976526D01*
X7048703Y1940306D01*
X7048703Y1927606D01*
X7070699Y1885086D01*
X7094423Y1823212D01*
X7094423Y1810257D01*
X7086041Y1805025D01*
X7072122Y1818893D01*
X7032701Y1837283D01*
X6975398Y1872081D01*
X6947509Y1867966D01*
X6938162Y1843989D01*
X6941769Y1737614D01*
X6981342Y1656994D01*
X6999630Y1560626D01*
X7012940Y1519478D01*
X7031634Y1464614D01*
X7043318Y1450949D01*
X7053173Y1414373D01*
X7076135Y1369415D01*
X7076135Y1356868D01*
X7093254Y1322933D01*
X7103719Y1262024D01*
X7117080Y1224026D01*
X7126833Y1145743D01*
X7138974Y1121867D01*
X7153808Y1033983D01*
X7170928Y980186D01*
X7177227Y948182D01*
X7191349Y888796D01*
X7201052Y870508D01*
X7215530Y859383D01*
X7230008Y859078D01*
X7269022Y911606D01*
X7291730Y950315D01*
X7318197Y936650D01*
X7357160Y884224D01*
X7362037Y879652D01*
X7412786Y811072D01*
X7452918Y751687D01*
X7473086Y715111D01*
X7491272Y677265D01*
X7499248Y673963D01*
X7524953Y629666D01*
X7562138Y593547D01*
X7598511Y596290D01*
X7617307Y621487D01*
X7620762Y678535D01*
X7598460Y720039D01*
X7588554Y737971D01*
X7565796Y790244D01*
X7555484Y895197D01*
X7565542Y914044D01*
X7582865Y904798D01*
X7609738Y904798D01*
X7621066Y918413D01*
X7610094Y1087120D01*
X7616037Y1105865D01*
X7636002Y1105662D01*
X7703972Y1055878D01*
X7768539Y1000912D01*
X7832547Y950010D01*
X7862570Y925321D01*
X8070240Y722782D01*
X8093964Y704088D01*
X8170722Y671220D01*
X8211870Y654456D01*
X8312403Y620572D01*
X8348980Y612038D01*
X8394700Y594563D01*
X8435797Y588772D01*
X8501735Y571246D01*
X8550402Y565556D01*
X8561730Y579221D01*
X8562746Y610006D01*
X8532368Y669340D01*
X8491880Y712622D01*
X8408060Y753973D01*
X8391194Y753973D01*
X8360511Y772922D01*
X8299043Y781608D01*
X8278063Y801319D01*
X8261451Y829513D01*
X8269681Y854354D01*
X8303259Y862837D01*
X8363153Y868730D01*
X8384590Y879652D01*
X8392312Y900734D01*
X8358276Y914908D01*
X8336330Y932180D01*
X8320531Y932180D01*
X8286038Y959612D01*
X8274710Y959612D01*
X8262264Y974598D01*
X8225586Y992276D01*
X8185912Y1013917D01*
X8138515Y1058722D01*
X8115909Y1070813D01*
X8036509Y1128979D01*
X8001152Y1172159D01*
X7971942Y1218641D01*
X7971942Y1229410D01*
X7948523Y1277264D01*
X7935518Y1300124D01*
X7921548Y1332077D01*
X7898790Y1374597D01*
X7898536Y1386941D01*
X7876031Y1432661D01*
X7875930Y1444345D01*
X7849260Y1497177D01*
X7813497Y1529486D01*
X7700009Y1586585D01*
X7668971Y1603552D01*
X7637272Y1633728D01*
X7570978Y1720748D01*
X7549184Y1760626D01*
X7532217Y1793697D01*
X7520635Y1807413D01*
X7509154Y1843989D01*
X7497673Y1857705D01*
X7491018Y1880514D01*
X7463028Y1930806D01*
X7392263Y2022754D01*
X7377785Y2034743D01*
X7377785Y2046224D01*
X7457744Y2118055D01*
X7551470Y2209596D01*
X7570063Y2225954D01*
X7599425Y2243836D01*
X7613853Y2243886D01*
X7633055Y2223312D01*
X7653121Y2168448D01*
X7661148Y2159762D01*
X7661148Y2145385D01*
X7688275Y2090775D01*
X7688580Y2071573D01*
X7709916Y2031339D01*
X7716570Y2004568D01*
X7739278Y1965858D01*
X7777683Y1934768D01*
X7827975Y1906168D01*
X7843723Y1887575D01*
X7866786Y1842007D01*
X7866786Y1829765D01*
X7888427Y1784553D01*
X7899298Y1732686D01*
X7912506Y1721764D01*
X7912506Y1710994D01*
X7955940Y1624838D01*
X7980425Y1616202D01*
X8030464Y1650644D01*
X8102193Y1710232D01*
X8161578Y1763471D01*
X8190941Y1784553D01*
X8234273Y1815185D01*
X8254949Y1823059D01*
X8259927Y1815033D01*
X8273034Y1738833D01*
X8283244Y1661160D01*
X8300212Y1624584D01*
X8306663Y1583486D01*
X8322716Y1551482D01*
X8332825Y1503730D01*
X8351266Y1469339D01*
X8351266Y1457198D01*
X8385098Y1386941D01*
X8477859Y1240688D01*
X8506307Y1185824D01*
X8520379Y1123594D01*
X8520531Y1039621D01*
X8538667Y939698D01*
X8556904Y922680D01*
X8556904Y915162D01*
X8598966Y882396D01*
X8649055Y871982D01*
X8674557Y882548D01*
X8684920Y905205D01*
X8684920Y923036D01*
X8710676Y923036D01*
X8734958Y886002D01*
X8744102Y852220D01*
X8756904Y833932D01*
X8768181Y779068D01*
X8808669Y731520D01*
X8847124Y705561D01*
X8907272Y676249D01*
X8925356Y676249D01*
X8942984Y689152D01*
X8921191Y728827D01*
X8909812Y742543D01*
X8877655Y806500D01*
X8867749Y843076D01*
X8867800Y888796D01*
X8894927Y998321D01*
X8900922Y1064412D01*
X8917635Y1079550D01*
X8952280Y1061821D01*
X9029954Y1013053D01*
X9093962Y976223D01*
X9144203Y972515D01*
X9172956Y1003046D01*
X9197543Y1062431D01*
X9210751Y1121410D01*
X9222689Y1135583D01*
X9235338Y1167434D01*
X9276740Y1223264D01*
X9313214Y1281836D01*
X9334144Y1317548D01*
X9357156Y1377797D01*
X9379864Y1426565D01*
X9385096Y1464716D01*
X9375241Y1501292D01*
X9350806Y1539036D01*
X9326524Y1532026D01*
X9298787Y1517700D01*
X9227058Y1470202D01*
X9166402Y1414373D01*
X9146590Y1398524D01*
X9116822Y1384452D01*
X9049156Y1348079D01*
X9029192Y1348079D01*
X9024416Y1352905D01*
X9187840Y1517243D01*
X9213799Y1558137D01*
X9253931Y1605178D01*
X9268561Y1620012D01*
X9285376Y1647443D01*
X9348673Y1726895D01*
X9374428Y1735886D01*
X9380575Y1706880D01*
X9397898Y1674875D01*
X9416897Y1620012D01*
X9430512Y1578914D01*
X9447123Y1541932D01*
X9458045Y1489202D01*
X9485172Y1458315D01*
X9533636Y1448257D01*
X9582962Y1429613D01*
X9628682Y1394460D01*
X9678314Y1347216D01*
X9840112Y1266190D01*
X9878720Y1222400D01*
X9902647Y1176731D01*
X9923830Y1121867D01*
X9947249Y1057859D01*
X9998811Y957326D01*
X10019030Y925321D01*
X10067442Y859688D01*
X10094823Y812495D01*
X10128554Y769924D01*
X10184333Y701395D01*
X10203688Y637946D01*
X10227411Y615950D01*
X10243058Y607568D01*
X10257078Y634695D01*
X10257078Y664006D01*
X10234523Y702513D01*
X10228681Y742543D01*
X10210596Y803859D01*
X10216337Y813155D01*
X10291368Y761695D01*
X10295940Y755446D01*
X10359948Y700633D01*
X10379913Y689965D01*
X10403433Y698906D01*
X10413746Y721461D01*
X10425226Y725881D01*
X10483342Y693470D01*
X10561015Y642620D01*
X10639552Y571449D01*
X10664444Y562000D01*
X10743844Y562152D01*
X10766704Y573887D01*
X10763605Y605434D01*
X10727232Y669391D01*
X10701274Y705967D01*
X10651286Y756259D01*
X10638739Y765759D01*
X10583875Y801522D01*
X10529366Y843076D01*
X10384942Y942644D01*
X10327944Y1003350D01*
X10300563Y1044143D01*
X10265511Y1089863D01*
X10085730Y1271625D01*
X9997998Y1341221D01*
X9927031Y1391513D01*
X9878466Y1432661D01*
X9787788Y1511909D01*
X9684004Y1624584D01*
X9601403Y1706118D01*
X9518751Y1771904D01*
X9418421Y1827428D01*
X9352788Y1827987D01*
X9331604Y1819706D01*
X9299600Y1788972D01*
X9275470Y1761693D01*
X9223603Y1716024D01*
X9211767Y1706829D01*
X9165793Y1649526D01*
X9024569Y1505762D01*
X8927134Y1414729D01*
X8913215Y1406956D01*
X8892844Y1413357D01*
X8838031Y1461211D01*
X8783167Y1495653D01*
X8691524Y1588058D01*
X8633256Y1661160D01*
X8595715Y1697736D01*
X8532622Y1768957D01*
X8495233Y1809089D01*
X8449513Y1861616D01*
X8426653Y1890217D01*
X8358124Y1962150D01*
X8326120Y1993341D01*
X8304987Y2001672D01*
X8285734Y2001672D01*
X8225586Y1977847D01*
X8206689Y1960524D01*
X8200644Y1960524D01*
X8152434Y1928774D01*
X8113268Y1901088D01*
X8093049Y1901647D01*
X8042757Y1961692D01*
X7992516Y2019401D01*
X7916621Y2118207D01*
X7878216Y2169007D01*
X7827975Y2230882D01*
X7764881Y2305558D01*
X7729829Y2344064D01*
X7670139Y2394712D01*
X7613091Y2394712D01*
X7567472Y2370429D01*
X7521752Y2336495D01*
X7412075Y2233523D01*
X7361885Y2195880D01*
X7316774Y2166416D01*
X7294219Y2172055D01*
X7267854Y2200452D01*
X7250480Y2233066D01*
X7236104Y2245004D01*
X7236104Y2254300D01*
X7185710Y2334158D01*
X7157669Y2369566D01*
X7073849Y2456942D01*
X6993128Y2545080D01*
X6900164Y2640533D01*
X6854494Y2703220D01*
X6824929Y2767177D01*
X6824776Y2778404D01*
X6801002Y2831185D01*
X6772351Y2888945D01*
X6721957Y2929636D01*
X6681114Y2963722D01*
X6571132Y3074009D01*
X6429451Y3220212D01*
X6403390Y3237941D01*
X6372606Y3260801D01*
X6329121Y3287979D01*
X6278626Y3298850D01*
G37*
G36*
X6152235Y2874568D02*
G01*
X6127800Y2848762D01*
X6060490Y2760878D01*
X5990031Y2694076D01*
X5951626Y2667000D01*
X5933541Y2636418D01*
X5933541Y2592882D01*
X5923584Y2538933D01*
X5906312Y2505151D01*
X5876950Y2460955D01*
X5821375Y2406142D01*
X5721045Y2347874D01*
X5698185Y2333752D01*
X5642000Y2276754D01*
X5631942Y2229713D01*
X5631992Y2191308D01*
X5640984Y2159304D01*
X5700979Y2090775D01*
X5716219Y2063343D01*
X5726734Y2008530D01*
X5753049Y1935734D01*
X5784392Y1914601D01*
X5790996Y1921662D01*
X5818327Y1972614D01*
X5829401Y2026767D01*
X5847740Y2067915D01*
X5862726Y2084882D01*
X5894730Y2100935D01*
X5961278Y2116988D01*
X5978753Y2131923D01*
X6001461Y2218740D01*
X6007658Y2287320D01*
X6024626Y2337562D01*
X6034430Y2400046D01*
X6047435Y2419959D01*
X6058154Y2470099D01*
X6075222Y2491892D01*
X6075273Y2502103D01*
X6117336Y2566111D01*
X6129883Y2590393D01*
X6161379Y2684932D01*
X6167577Y2735173D01*
X6180226Y2790037D01*
X6180378Y2868472D01*
X6174282Y2874568D01*
G37*
G36*
X6310630Y2447696D02*
G01*
X6288938Y2429002D01*
X6253480Y2354122D01*
X6253480Y2347417D01*
X6225590Y2287320D01*
X6212535Y2264460D01*
X6198006Y2233523D01*
X6181648Y2209596D01*
X6139535Y2145639D01*
X6128258Y2102408D01*
X6137097Y2077059D01*
X6176213Y2063496D01*
X6170523Y2040483D01*
X6157518Y2026056D01*
X6157518Y2018842D01*
X6129172Y1986584D01*
X6132423Y1915007D01*
X6152489Y1894941D01*
X6182664Y1896922D01*
X6260338Y1897786D01*
X6332524Y1873300D01*
X6379159Y1863445D01*
X6402019Y1852422D01*
X6419088Y1856282D01*
X6414617Y1896110D01*
X6380835Y1947011D01*
X6360160Y1960524D01*
X6314389Y1974138D01*
X6299809Y1990242D01*
X6289192Y2017623D01*
X6271920Y2122779D01*
X6271920Y2177592D01*
X6288786Y2241600D01*
X6331864Y2331974D01*
X6341008Y2355850D01*
X6340500Y2432405D01*
X6330492Y2444445D01*
G37*
G36*
X4746244Y2061057D02*
G01*
X4733848Y2061006D01*
X4632147Y1962810D01*
X4589678Y1903526D01*
X4579975Y1866849D01*
X4567224Y1846884D01*
X4553559Y1779981D01*
X4562297Y1697736D01*
X4562043Y1642872D01*
X4547565Y1606296D01*
X4546447Y1574342D01*
X4564735Y1577289D01*
X4615027Y1600758D01*
X4644491Y1623212D01*
X4670298Y1665732D01*
X4686350Y1708404D01*
X4708956Y1723237D01*
X4731461Y1696516D01*
X4756708Y1691639D01*
X4785766Y1709521D01*
X4800193Y1747977D01*
X4808220Y1792274D01*
X4796028Y1843989D01*
X4776825Y1898802D01*
X4769713Y2040483D01*
X4758639Y2061057D01*
G37*
G36*
X6001461Y1823415D02*
G01*
X5958687Y1798523D01*
X5906160Y1758746D01*
X5883859Y1720596D01*
X5856122Y1648307D01*
X5836005Y1626870D01*
X5792317Y1626870D01*
X5770473Y1616913D01*
X5749645Y1574342D01*
X5743600Y1443329D01*
X5721045Y1425549D01*
X5691530Y1412646D01*
X5673090Y1382369D01*
X5673039Y1330248D01*
X5682843Y1284732D01*
X5695797Y1273962D01*
X5716574Y1279144D01*
X5800090Y1396085D01*
X5821578Y1423365D01*
X5909716Y1511960D01*
X5958687Y1537512D01*
X6015888Y1556715D01*
X6020409Y1552244D01*
X6020409Y1533956D01*
X6007506Y1519478D01*
X5924397Y1431188D01*
X5924600Y1400657D01*
X5941568Y1363370D01*
X5966612Y1343660D01*
X5976975Y1349857D01*
X6031839Y1387957D01*
X6073698Y1407007D01*
X6148324Y1416405D01*
X6175959Y1430680D01*
X6203188Y1473758D01*
X6212636Y1510334D01*
X6221679Y1528622D01*
X6243320Y1558188D01*
X6360871Y1617776D01*
X6413296Y1674875D01*
X6413449Y1698243D01*
X6402019Y1712366D01*
X6325412Y1726946D01*
X6222542Y1777695D01*
X6209131Y1777695D01*
X6168339Y1799386D01*
X6054394Y1803196D01*
X6018123Y1822805D01*
G37*
G36*
X5352542Y1457807D02*
G01*
X5328005Y1451914D01*
X5245709Y1416253D01*
X5200040Y1394866D01*
X5169204Y1389227D01*
X5108956Y1398828D01*
X5098948Y1407160D01*
X5072075Y1400352D01*
X5049012Y1353413D01*
X5030927Y1333449D01*
X5006238Y1320647D01*
X4991150Y1320647D01*
X4957775Y1305255D01*
X4847285Y1193800D01*
X4780686Y1182522D01*
X4742992Y1166368D01*
X4679746Y1160322D01*
X4637887Y1142847D01*
X4597552Y1132535D01*
X4578451Y1120597D01*
X4541875Y1109065D01*
X4523638Y1097686D01*
X4471771Y1082954D01*
X4465523Y1054608D01*
X4492853Y1016762D01*
X4549343Y977900D01*
X4553051Y977900D01*
X4602988Y955040D01*
X4717694Y955040D01*
X4779568Y978966D01*
X4837176Y1007618D01*
X4912106Y1095400D01*
X4930394Y1121105D01*
X4985359Y1176731D01*
X5022240Y1201826D01*
X5076647Y1211529D01*
X5154168Y1234795D01*
X5204612Y1261414D01*
X5305298Y1322933D01*
X5334609Y1343964D01*
X5344871Y1382369D01*
X5362854Y1421942D01*
X5356606Y1450949D01*
G37*
G36*
X6541109Y1416659D02*
G01*
X6511239Y1404162D01*
X6500317Y1231544D01*
X6485839Y1172159D01*
X6490258Y1131011D01*
X6512509Y1067866D01*
X6534556Y1049883D01*
X6661861Y1056335D01*
X6695744Y1069848D01*
X6763359Y1140968D01*
X6790486Y1146149D01*
X6850481Y1097076D01*
X6964172Y984148D01*
X7016597Y955040D01*
X7046975Y955040D01*
X7062012Y966469D01*
X7049973Y1021334D01*
X7015988Y1080719D01*
X6978650Y1129233D01*
X6834327Y1268425D01*
X6798614Y1336649D01*
X6731101Y1362049D01*
X6665468Y1374952D01*
X6637172Y1389583D01*
X6584848Y1399235D01*
X6573367Y1408684D01*
X6543700Y1415694D01*
G37*
G36*
X9601454Y1343507D02*
G01*
X9578390Y1343406D01*
X9557461Y1337767D01*
X9544100Y1311960D01*
X9544100Y1283614D01*
X9556953Y1222400D01*
X9567519Y1159052D01*
X9585248Y1120089D01*
X9585248Y1104747D01*
X9608972Y1048715D01*
X9622028Y1021334D01*
X9642398Y988009D01*
X9660128Y961898D01*
X9695688Y927608D01*
X9731705Y927608D01*
X9771430Y964234D01*
X9789922Y1016762D01*
X9795103Y1039621D01*
X9807702Y1056843D01*
X9854184Y1033475D01*
X9868611Y1049477D01*
X9868611Y1079906D01*
X9843312Y1121867D01*
X9831882Y1140155D01*
X9816033Y1172159D01*
X9787128Y1213256D01*
X9742932Y1256131D01*
X9624110Y1321409D01*
G37*
G36*
X6150660Y1231544D02*
G01*
X6040983Y1220724D01*
X5944717Y1207770D01*
X5908446Y1191717D01*
X5849010Y1163574D01*
X5800445Y1127150D01*
X5786323Y1099870D01*
X5777890Y1089863D01*
X5740196Y1025906D01*
X5681522Y955141D01*
X5634228Y915111D01*
X5606796Y899871D01*
X5565648Y872794D01*
X5535574Y858824D01*
X5446826Y802792D01*
X5428538Y790854D01*
X5375046Y753973D01*
X5369864Y753973D01*
X5352288Y738073D01*
X5311749Y715111D01*
X5213756Y656437D01*
X5154066Y619150D01*
X5131409Y600862D01*
X5115966Y576732D01*
X5144058Y571144D01*
X5337149Y571246D01*
X5451398Y585063D01*
X5533644Y597001D01*
X5579364Y620420D01*
X5615940Y661873D01*
X5666181Y728065D01*
X5734862Y811072D01*
X5798718Y879602D01*
X5849162Y929894D01*
X5894730Y971042D01*
X5940399Y1004214D01*
X6008979Y1038504D01*
X6050127Y1066393D01*
X6170828Y1187704D01*
X6179007Y1217828D01*
X6170574Y1228699D01*
G37*
D10*
X5969000Y3848100D02*
G01*
X5969000Y3594100D01*
X5156200Y2781300D01*
X5130800Y3492500D02*
G01*
X4584700Y3492500D01*
X4533900Y3543300D01*
X4953000Y3556000D02*
G01*
X5435600Y3556000D01*
X5524500Y3467100D01*
D11*
G01*
X4953000Y2882900D03*
D12*
G01*
X5969000Y3848100D03*
G01*
X5156200Y2781300D03*
G01*
X5130800Y3492500D03*
G01*
X4533900Y3543300D03*
G01*
X4953000Y3556000D03*
G01*
X5524500Y3467100D03*
M02*
